<svg version="1.1" xmlns="http://www.w3.org/2000/svg" xmlns:xlink="http://www.w3.org/1999/xlink" width="543.53076171875" height="436"><defs/><g><g transform="translate(-286,-166) scale(1,1)"><rect fill="#C0C0C0" stroke="none" x="303" y="183" width="175" height="143" opacity="0.2"/></g><g transform="translate(-286,-166) scale(1,1)"><rect fill="#ffffff" stroke="none" x="296" y="176" width="175" height="143"/></g><g transform="translate(-286,-166) scale(1,1)"><path fill="none" stroke="#000000" d="M 296 176 L 471 176 L 471 319 L 296 319 L 296 176 Z Z" stroke-miterlimit="10"/></g><g transform="translate(-286,-166) scale(1,1)"><path fill="none" stroke="#000000" d="M 296 201 L 471 201" stroke-miterlimit="10"/></g><g transform="translate(-286,-166) scale(1,1)"><g><path fill="none" stroke="none"/><text fill="#000000" stroke="none" font-family="Arial" font-size="13px" font-style="normal" font-weight="bold" text-decoration="none" x="357.12548828125" y="195.5">Category</text></g></g><g transform="translate(-286,-166) scale(1,1)"><g><path fill="none" stroke="none"/><text fill="#000000" stroke="none" font-family="Arial" font-size="13px" font-style="normal" font-weight="normal" text-decoration="none" x="301" y="218.5">+title: string</text></g></g><g transform="translate(-286,-166) scale(1,1)"><g><path fill="none" stroke="none"/><text fill="#000000" stroke="none" font-family="Arial" font-size="13px" font-style="normal" font-weight="normal" text-decoration="none" x="301" y="233.5">+cat_id: int</text></g></g><g transform="translate(-286,-166) scale(1,1)"><g><path fill="none" stroke="none"/><text fill="#000000" stroke="none" font-family="Arial" font-size="13px" font-style="normal" font-weight="normal" text-decoration="none" x="301" y="248.5">+created_at: datetime</text></g></g><g transform="translate(-286,-166) scale(1,1)"><g><path fill="none" stroke="none"/><text fill="#000000" stroke="none" font-family="Arial" font-size="13px" font-style="normal" font-weight="normal" text-decoration="none" x="301" y="263.5">+attribute: boolean</text></g></g><g transform="translate(-286,-166) scale(1,1)"><rect fill="#C0C0C0" stroke="none" x="303" y="399" width="184" height="200" opacity="0.2"/></g><g transform="translate(-286,-166) scale(1,1)"><rect fill="#ffffff" stroke="none" x="296" y="392" width="184" height="200"/></g><g transform="translate(-286,-166) scale(1,1)"><path fill="none" stroke="#000000" d="M 296 392 L 480 392 L 480 592 L 296 592 L 296 392 Z Z" stroke-miterlimit="10"/></g><g transform="translate(-286,-166) scale(1,1)"><path fill="none" stroke="#000000" d="M 296 417 L 480 417" stroke-miterlimit="10"/></g><g transform="translate(-286,-166) scale(1,1)"><path fill="none" stroke="#000000" d="M 296 455 L 480 455" stroke-miterlimit="10"/></g><g transform="translate(-286,-166) scale(1,1)"><g><path fill="none" stroke="none"/><text fill="#000000" stroke="none" font-family="Arial" font-size="13px" font-style="normal" font-weight="bold" text-decoration="none" x="346.451416015625" y="411.5">CategoryLinks</text></g></g><g transform="translate(-286,-166) scale(1,1)"><g><path fill="none" stroke="none"/><text fill="#000000" stroke="none" font-family="Arial" font-size="13px" font-style="normal" font-weight="normal" text-decoration="none" x="301" y="434.5">+link_text: string</text></g></g><g transform="translate(-286,-166) scale(1,1)"><g><path fill="none" stroke="none"/><text fill="#000000" stroke="none" font-family="Arial" font-size="13px" font-style="normal" font-weight="normal" text-decoration="none" x="301" y="449.5">+article_id: int</text></g></g><g transform="translate(-286,-166) scale(1,1)"><rect fill="#C0C0C0" stroke="none" x="543" y="399" width="200" height="128" opacity="0.2"/></g><g transform="translate(-286,-166) scale(1,1)"><rect fill="#ffffff" stroke="none" x="536" y="392" width="200" height="128"/></g><g transform="translate(-286,-166) scale(1,1)"><path fill="none" stroke="#000000" d="M 536 392 L 736 392 L 736 520 L 536 520 L 536 392 Z Z" stroke-miterlimit="10"/></g><g transform="translate(-286,-166) scale(1,1)"><path fill="none" stroke="#000000" d="M 536 417 L 736 417" stroke-miterlimit="10"/></g><g transform="translate(-286,-166) scale(1,1)"><g><path fill="none" stroke="none"/><text fill="#000000" stroke="none" font-family="Arial" font-size="13px" font-style="normal" font-weight="bold" text-decoration="none" x="593.73095703125" y="411.5">CategoryBlock</text></g></g><g transform="translate(-286,-166) scale(1,1)"><g><path fill="none" stroke="none"/><text fill="#000000" stroke="none" font-family="Arial" font-size="13px" font-style="normal" font-weight="normal" text-decoration="none" x="541" y="434.5">link_text: String</text></g></g><g transform="translate(-286,-166) scale(1,1)"><g><path fill="none" stroke="none"/><text fill="#000000" stroke="none" font-family="Arial" font-size="13px" font-style="normal" font-weight="normal" text-decoration="none" x="541" y="449.5">url: String</text></g></g><g transform="translate(-286,-166) scale(1,1)"><path fill="none" stroke="#000000" d="M 386 391 L 384 320" stroke-miterlimit="10"/></g><g transform="translate(-286,-166) scale(1,1)"><path fill="#FFFFFF" stroke="none" d="M 392.9880153163334 340.08022860112294 L 384 320 L 376.15662076795786 340.554352391218"/></g><g transform="translate(-286,-166) scale(1,1)"><path fill="none" stroke="#000000" d="M 392.9880153163334 340.08022860112294 L 384 320 L 376.15662076795786 340.554352391218 L 392.9880153163334 340.08022860112294" stroke-miterlimit="10"/></g><g transform="translate(-286,-166) scale(1,1)"><path fill="none" stroke="#000000" d="M 557 391 L 471 320" stroke-miterlimit="10"/></g><g transform="translate(-286,-166) scale(1,1)"><path fill="#FFFFFF" stroke="none" d="M 492.0339336989454 326.4477618712517 L 471 320 L 481.3139810109144 339.4324932961907"/></g><g transform="translate(-286,-166) scale(1,1)"><path fill="none" stroke="#000000" d="M 492.0339336989454 326.4477618712517 L 471 320 L 481.3139810109144 339.4324932961907 L 492.0339336989454 326.4477618712517" stroke-miterlimit="10"/></g><g transform="translate(-286,-166) scale(1,1)"><rect fill="#C0C0C0" stroke="none" x="599" y="207" width="227.53076171875" height="87" opacity="0.2"/></g><g transform="translate(-286,-166) scale(1,1)"><rect fill="#ffffff" stroke="none" x="592" y="200" width="227.53076171875" height="87"/></g><g transform="translate(-286,-166) scale(1,1)"><path fill="none" stroke="#000000" d="M 592 200 L 819.53076171875 200 L 819.53076171875 287 L 592 287 L 592 200 Z Z" stroke-miterlimit="10"/></g><g transform="translate(-286,-166) scale(1,1)"><path fill="none" stroke="#000000" d="M 592 225 L 819.53076171875 225" stroke-miterlimit="10"/></g><g transform="translate(-286,-166) scale(1,1)"><path fill="none" stroke="#000000" d="M 592 278 L 819.53076171875 278" stroke-miterlimit="10"/></g><g transform="translate(-286,-166) scale(1,1)"><g><path fill="none" stroke="none"/><text fill="#000000" stroke="none" font-family="Arial" font-size="13px" font-style="normal" font-weight="bold" text-decoration="none" x="653.73681640625" y="219.5">CategoryManager</text></g></g><g transform="translate(-286,-166) scale(1,1)"><g><path fill="none" stroke="none"/><text fill="#000000" stroke="none" font-family="Arial" font-size="13px" font-style="normal" font-weight="normal" text-decoration="none" x="597" y="242.5">categories: Category</text></g></g><g transform="translate(-286,-166) scale(1,1)"><g><path fill="none" stroke="none"/><text fill="#000000" stroke="none" font-family="Arial" font-size="13px" font-style="normal" font-weight="normal" text-decoration="none" x="597" y="257.5">permissions: UserArticlePermissions</text></g></g><g transform="translate(-286,-166) scale(1,1)"><g><path fill="none" stroke="none"/><text fill="#000000" stroke="none" font-family="Arial" font-size="13px" font-style="normal" font-weight="normal" text-decoration="none" x="597" y="272.5">user_id: int</text></g></g><g transform="translate(-286,-166) scale(1,1)"><path fill="none" stroke="#000000" d="M 591 244 L 472 246" stroke-miterlimit="10"/></g><g transform="translate(-286,-166) scale(1,1)"><path fill="none" stroke="#000000" d="M 482.09050164921234 241.62029950028048 L 472 246 L 482.23197806464987 250.0381462188143" stroke-miterlimit="10"/></g><g transform="translate(-286,-166) scale(1,1)"><g><path fill="none" stroke="none"/><text fill="#000000" stroke="none" font-family="Arial" font-size="13px" font-style="normal" font-weight="normal" text-decoration="none" x="484" y="266">+Create / Modify</text></g></g><g transform="translate(-286,-166) scale(1,1)"><g><path fill="none" stroke="none"/><text fill="#000000" stroke="none" font-family="Arial" font-size="13px" font-style="normal" font-weight="normal" text-decoration="none" x="566" y="238">1</text></g></g><g transform="translate(-286,-166) scale(1,1)"><g><path fill="none" stroke="none"/><text fill="#000000" stroke="none" font-family="Arial" font-size="13px" font-style="normal" font-weight="normal" text-decoration="none" x="484" y="240">1..*</text></g></g></g></svg>