<svg version="1.1" xmlns="http://www.w3.org/2000/svg" xmlns:xlink="http://www.w3.org/1999/xlink" width="883" height="563"><defs/><g><g transform="translate(-6,-86) scale(1,1)"><rect fill="#C0C0C0" stroke="none" x="23" y="463" width="118" height="15" opacity="0.2"/></g><g transform="translate(-6,-86) scale(1,1)"><rect fill="#C0C0C0" stroke="none" x="23" y="477" width="295" height="169" opacity="0.2"/></g><g transform="translate(-6,-86) scale(1,1)"><rect fill="#ffffff" stroke="none" x="16" y="471" width="295" height="168"/></g><g transform="translate(-6,-86) scale(1,1)"><path fill="none" stroke="#000000" d="M 16 471 L 311 471 L 311 639 L 16 639 L 16 471 Z Z" stroke-miterlimit="10"/></g><g transform="translate(-6,-86) scale(1,1)"><rect fill="#ffffff" stroke="none" x="16" y="456" width="118" height="15"/></g><g transform="translate(-6,-86) scale(1,1)"><path fill="none" stroke="#000000" d="M 16 456 L 134 456 L 134 471 L 16 471 L 16 456 Z Z" stroke-miterlimit="10"/></g><g transform="translate(-6,-86) scale(1,1)"><rect fill="#ffffff" stroke="none" x="16" y="470" width="295" height="169"/></g><g transform="translate(-6,-86) scale(1,1)"><path fill="none" stroke="#000000" d="M 16 470 L 311 470 L 311 639 L 16 639 L 16 470 Z Z" stroke-miterlimit="10"/></g><g transform="translate(-6,-86) scale(1,1)"><g><path fill="none" stroke="none"/><text fill="#000000" stroke="none" font-family="Arial" font-size="13px" font-style="normal" font-weight="bold" text-decoration="none" x="145.44091796875" y="490.5">Article</text></g></g><g transform="translate(-6,-86) scale(1,1)"><rect fill="#C0C0C0" stroke="none" x="567" y="455" width="127.60000000000002" height="15" opacity="0.2"/></g><g transform="translate(-6,-86) scale(1,1)"><rect fill="#C0C0C0" stroke="none" x="567" y="469" width="319" height="169" opacity="0.2"/></g><g transform="translate(-6,-86) scale(1,1)"><rect fill="#ffffff" stroke="none" x="560" y="463" width="319" height="168"/></g><g transform="translate(-6,-86) scale(1,1)"><path fill="none" stroke="#000000" d="M 560 463 L 879 463 L 879 631 L 560 631 L 560 463 Z Z" stroke-miterlimit="10"/></g><g transform="translate(-6,-86) scale(1,1)"><rect fill="#ffffff" stroke="none" x="560" y="448" width="127.60000000000002" height="15"/></g><g transform="translate(-6,-86) scale(1,1)"><path fill="none" stroke="#000000" d="M 560 448 L 687.6 448 L 687.6 463 L 560 463 L 560 448 Z Z" stroke-miterlimit="10"/></g><g transform="translate(-6,-86) scale(1,1)"><rect fill="#ffffff" stroke="none" x="560" y="462" width="319" height="169"/></g><g transform="translate(-6,-86) scale(1,1)"><path fill="none" stroke="#000000" d="M 560 462 L 879 462 L 879 631 L 560 631 L 560 462 Z Z" stroke-miterlimit="10"/></g><g transform="translate(-6,-86) scale(1,1)"><g><path fill="none" stroke="none"/><text fill="#000000" stroke="none" font-family="Arial" font-size="13px" font-style="normal" font-weight="bold" text-decoration="none" x="705.7763671875" y="482.5">User</text></g></g><g transform="translate(-6,-86) scale(1,1)"><rect fill="#C0C0C0" stroke="none" x="391" y="335" width="155.681640625" height="95" opacity="0.2"/></g><g transform="translate(-6,-86) scale(1,1)"><rect fill="#ffffff" stroke="none" x="384" y="328" width="155.681640625" height="95"/></g><g transform="translate(-6,-86) scale(1,1)"><path fill="none" stroke="#000000" d="M 384 328 L 539.681640625 328 L 539.681640625 423 L 384 423 L 384 328 Z Z" stroke-miterlimit="10"/></g><g transform="translate(-6,-86) scale(1,1)"><path fill="none" stroke="#000000" d="M 384 353 L 539.681640625 353" stroke-miterlimit="10"/></g><g transform="translate(-6,-86) scale(1,1)"><path fill="none" stroke="#000000" d="M 384 363 L 539.681640625 363" stroke-miterlimit="10"/></g><g transform="translate(-6,-86) scale(1,1)"><g><path fill="none" stroke="none"/><text fill="#000000" stroke="none" font-family="Arial" font-size="13px" font-style="normal" font-weight="bold" text-decoration="none" x="394.660400390625" y="347.5">UserArticlePermissions</text></g></g><g transform="translate(-6,-86) scale(1,1)"><rect fill="#C0C0C0" stroke="none" x="207" y="527" width="102.919921875" height="55" opacity="0.2"/></g><g transform="translate(-6,-86) scale(1,1)"><rect fill="#ffffff" stroke="none" x="200" y="520" width="102.919921875" height="55"/></g><g transform="translate(-6,-86) scale(1,1)"><path fill="none" stroke="#000000" d="M 200 520 L 302.919921875 520 L 302.919921875 575 L 200 575 L 200 520 Z Z" stroke-miterlimit="10"/></g><g transform="translate(-6,-86) scale(1,1)"><path fill="none" stroke="#000000" d="M 200 545 L 302.919921875 545" stroke-miterlimit="10"/></g><g transform="translate(-6,-86) scale(1,1)"><path fill="none" stroke="#000000" d="M 200 555 L 302.919921875 555" stroke-miterlimit="10"/></g><g transform="translate(-6,-86) scale(1,1)"><g><path fill="none" stroke="none"/><text fill="#000000" stroke="none" font-family="Arial" font-size="13px" font-style="normal" font-weight="bold" text-decoration="none" x="207.746826171875" y="539.5">ArticleManager</text></g></g><g transform="translate(-6,-86) scale(1,1)"><path fill="none" stroke="#000000" d="M 285 519 L 401 424" stroke-miterlimit="10"/></g><g transform="translate(-6,-86) scale(1,1)"><path fill="#FFFFFF" stroke="none" d="M 395.8046986539517 433.6958157946481 L 401 424 L 390.4703900903703 427.182344285433 L 383.97947870656407 437.93922002479667"/></g><g transform="translate(-6,-86) scale(1,1)"><path fill="none" stroke="#000000" d="M 395.8046986539517 433.6958157946481 L 401 424 L 390.4703900903703 427.182344285433 L 383.97947870656407 437.93922002479667 L 395.8046986539517 433.6958157946481" stroke-miterlimit="10"/></g><g transform="translate(-6,-86) scale(1,1)"><g><path fill="none" stroke="none"/><text fill="#000000" stroke="none" font-family="Arial" font-size="13px" font-style="normal" font-weight="normal" text-decoration="none" x="280" y="434">+Restricts Usage</text></g></g><g transform="translate(-6,-86) scale(1,1)"><g><path fill="none" stroke="none"/><text fill="#000000" stroke="none" font-family="Arial" font-size="13px" font-style="normal" font-weight="normal" text-decoration="none" x="264" y="516">1..*</text></g></g><g transform="translate(-6,-86) scale(1,1)"><rect fill="#C0C0C0" stroke="none" x="583" y="519" width="115.2216796875" height="55" opacity="0.2"/></g><g transform="translate(-6,-86) scale(1,1)"><rect fill="#ffffff" stroke="none" x="576" y="512" width="115.2216796875" height="55"/></g><g transform="translate(-6,-86) scale(1,1)"><path fill="none" stroke="#000000" d="M 576 512 L 691.2216796875 512 L 691.2216796875 567 L 576 567 L 576 512 Z Z" stroke-miterlimit="10"/></g><g transform="translate(-6,-86) scale(1,1)"><path fill="none" stroke="#000000" d="M 576 537 L 691.2216796875 537" stroke-miterlimit="10"/></g><g transform="translate(-6,-86) scale(1,1)"><path fill="none" stroke="#000000" d="M 576 547 L 691.2216796875 547" stroke-miterlimit="10"/></g><g transform="translate(-6,-86) scale(1,1)"><g><path fill="none" stroke="none"/><text fill="#000000" stroke="none" font-family="Arial" font-size="13px" font-style="normal" font-weight="bold" text-decoration="none" x="584.489501953125" y="531.5">UserPermissions</text></g></g><g transform="translate(-6,-86) scale(1,1)"><path fill="none" stroke="#000000" d="M 604 511 L 512 424" stroke-miterlimit="10"/></g><g transform="translate(-6,-86) scale(1,1)"><path fill="#FFFFFF" stroke="none" d="M 522.2762509102407 427.9241135597454 L 512 424 L 516.4916393955635 434.0411740120477 L 527.9846492817761 439.11591834254915"/></g><g transform="translate(-6,-86) scale(1,1)"><path fill="none" stroke="#000000" d="M 522.2762509102407 427.9241135597454 L 512 424 L 516.4916393955635 434.0411740120477 L 527.9846492817761 439.11591834254915 L 522.2762509102407 427.9241135597454" stroke-miterlimit="10"/></g><g transform="translate(-6,-86) scale(1,1)"><g><path fill="none" stroke="none"/><text fill="#000000" stroke="none" font-family="Arial" font-size="13px" font-style="normal" font-weight="normal" text-decoration="none" x="559" y="436">+Checks Permissions</text></g></g><g transform="translate(-6,-86) scale(1,1)"><g><path fill="none" stroke="none"/><text fill="#000000" stroke="none" font-family="Arial" font-size="13px" font-style="normal" font-weight="normal" text-decoration="none" x="608" y="509">1</text></g></g><g transform="translate(-6,-86) scale(1,1)"><rect fill="#C0C0C0" stroke="none" x="31" y="103" width="127.6" height="15" opacity="0.2"/></g><g transform="translate(-6,-86) scale(1,1)"><rect fill="#C0C0C0" stroke="none" x="31" y="117" width="319" height="161" opacity="0.2"/></g><g transform="translate(-6,-86) scale(1,1)"><rect fill="#ffffff" stroke="none" x="24" y="111" width="319" height="160"/></g><g transform="translate(-6,-86) scale(1,1)"><path fill="none" stroke="#000000" d="M 24 111 L 343 111 L 343 271 L 24 271 L 24 111 Z Z" stroke-miterlimit="10"/></g><g transform="translate(-6,-86) scale(1,1)"><rect fill="#ffffff" stroke="none" x="24" y="96" width="127.6" height="15"/></g><g transform="translate(-6,-86) scale(1,1)"><path fill="none" stroke="#000000" d="M 24 96 L 151.6 96 L 151.6 111 L 24 111 L 24 96 Z Z" stroke-miterlimit="10"/></g><g transform="translate(-6,-86) scale(1,1)"><rect fill="#ffffff" stroke="none" x="24" y="110" width="319" height="161"/></g><g transform="translate(-6,-86) scale(1,1)"><path fill="none" stroke="#000000" d="M 24 110 L 343 110 L 343 271 L 24 271 L 24 110 Z Z" stroke-miterlimit="10"/></g><g transform="translate(-6,-86) scale(1,1)"><g><path fill="none" stroke="none"/><text fill="#000000" stroke="none" font-family="Arial" font-size="13px" font-style="normal" font-weight="bold" text-decoration="none" x="162.905029296875" y="130.5">Search</text></g></g><g transform="translate(-6,-86) scale(1,1)"><rect fill="#C0C0C0" stroke="none" x="495" y="103" width="140.39999999999998" height="15" opacity="0.2"/></g><g transform="translate(-6,-86) scale(1,1)"><rect fill="#C0C0C0" stroke="none" x="495" y="117" width="351" height="153" opacity="0.2"/></g><g transform="translate(-6,-86) scale(1,1)"><rect fill="#ffffff" stroke="none" x="488" y="111" width="351" height="152"/></g><g transform="translate(-6,-86) scale(1,1)"><path fill="none" stroke="#000000" d="M 488 111 L 839 111 L 839 263 L 488 263 L 488 111 Z Z" stroke-miterlimit="10"/></g><g transform="translate(-6,-86) scale(1,1)"><rect fill="#ffffff" stroke="none" x="488" y="96" width="140.39999999999998" height="15"/></g><g transform="translate(-6,-86) scale(1,1)"><path fill="none" stroke="#000000" d="M 488 96 L 628.4 96 L 628.4 111 L 488 111 L 488 96 Z Z" stroke-miterlimit="10"/></g><g transform="translate(-6,-86) scale(1,1)"><rect fill="#ffffff" stroke="none" x="488" y="110" width="351" height="153"/></g><g transform="translate(-6,-86) scale(1,1)"><path fill="none" stroke="#000000" d="M 488 110 L 839 110 L 839 263 L 488 263 L 488 110 Z Z" stroke-miterlimit="10"/></g><g transform="translate(-6,-86) scale(1,1)"><g><path fill="none" stroke="none"/><text fill="#000000" stroke="none" font-family="Arial" font-size="13px" font-style="normal" font-weight="bold" text-decoration="none" x="637.12548828125" y="130.5">Category</text></g></g></g></svg>