<svg version="1.1" xmlns="http://www.w3.org/2000/svg" xmlns:xlink="http://www.w3.org/1999/xlink" width="883" height="563"><defs/><g><g transform="translate(-6,-86) scale(1,1)"><rect fill="#C0C0C0" stroke="none" x="23" y="463" width="118" height="15" opacity="0.2"/></g><g transform="translate(-6,-86) scale(1,1)"><rect fill="#C0C0C0" stroke="none" x="23" y="477" width="295" height="169" opacity="0.2"/></g><g transform="translate(-6,-86) scale(1,1)"><rect fill="#ffffff" stroke="none" x="16" y="471" width="295" height="168"/></g><g transform="translate(-6,-86) scale(1,1)"><path fill="none" stroke="#000000" d="M 16 471 L 311 471 L 311 639 L 16 639 L 16 471 Z Z" stroke-miterlimit="10"/></g><g transform="translate(-6,-86) scale(1,1)"><rect fill="#ffffff" stroke="none" x="16" y="456" width="118" height="15"/></g><g transform="translate(-6,-86) scale(1,1)"><path fill="none" stroke="#000000" d="M 16 456 L 134 456 L 134 471 L 16 471 L 16 456 Z Z" stroke-miterlimit="10"/></g><g transform="translate(-6,-86) scale(1,1)"><rect fill="#ffffff" stroke="none" x="16" y="470" width="295" height="169"/></g><g transform="translate(-6,-86) scale(1,1)"><path fill="none" stroke="#000000" d="M 16 470 L 311 470 L 311 639 L 16 639 L 16 470 Z Z" stroke-miterlimit="10"/></g><g transform="translate(-6,-86) scale(1,1)"><g><path fill="none" stroke="none"/><text fill="#000000" stroke="none" font-family="Arial" font-size="13px" font-style="normal" font-weight="bold" text-decoration="none" x="145.44091796875" y="490.5">Article</text></g></g><g transform="translate(-6,-86) scale(1,1)"><rect fill="#C0C0C0" stroke="none" x="567" y="455" width="127.60000000000002" height="15" opacity="0.2"/></g><g transform="translate(-6,-86) scale(1,1)"><rect fill="#C0C0C0" stroke="none" x="567" y="469" width="319" height="169" opacity="0.2"/></g><g transform="translate(-6,-86) scale(1,1)"><rect fill="#ffffff" stroke="none" x="560" y="463" width="319" height="168"/></g><g transform="translate(-6,-86) scale(1,1)"><path fill="none" stroke="#000000" d="M 560 463 L 879 463 L 879 631 L 560 631 L 560 463 Z Z" stroke-miterlimit="10"/></g><g transform="translate(-6,-86) scale(1,1)"><rect fill="#ffffff" stroke="none" x="560" y="448" width="127.60000000000002" height="15"/></g><g transform="translate(-6,-86) scale(1,1)"><path fill="none" stroke="#000000" d="M 560 448 L 687.6 448 L 687.6 463 L 560 463 L 560 448 Z Z" stroke-miterlimit="10"/></g><g transform="translate(-6,-86) scale(1,1)"><rect fill="#ffffff" stroke="none" x="560" y="462" width="319" height="169"/></g><g transform="translate(-6,-86) scale(1,1)"><path fill="none" stroke="#000000" d="M 560 462 L 879 462 L 879 631 L 560 631 L 560 462 Z Z" stroke-miterlimit="10"/></g><g transform="translate(-6,-86) scale(1,1)"><g><path fill="none" stroke="none"/><text fill="#000000" stroke="none" font-family="Arial" font-size="13px" font-style="normal" font-weight="bold" text-decoration="none" x="705.7763671875" y="482.5">User</text></g></g><g transform="translate(-6,-86) scale(1,1)"><rect fill="#C0C0C0" stroke="none" x="351" y="351" width="191.08251953125" height="102" opacity="0.2"/></g><g transform="translate(-6,-86) scale(1,1)"><rect fill="#ffffff" stroke="none" x="344" y="344" width="191.08251953125" height="102"/></g><g transform="translate(-6,-86) scale(1,1)"><path fill="none" stroke="#000000" d="M 344 344 L 535.08251953125 344 L 535.08251953125 446 L 344 446 L 344 344 Z Z" stroke-miterlimit="10"/></g><g transform="translate(-6,-86) scale(1,1)"><path fill="none" stroke="#000000" d="M 344 369 L 535.08251953125 369" stroke-miterlimit="10"/></g><g transform="translate(-6,-86) scale(1,1)"><path fill="none" stroke="#000000" d="M 344 422 L 535.08251953125 422" stroke-miterlimit="10"/></g><g transform="translate(-6,-86) scale(1,1)"><g><path fill="none" stroke="none"/><text fill="#000000" stroke="none" font-family="Arial" font-size="13px" font-style="normal" font-weight="bold" text-decoration="none" x="372.36083984375" y="363.5">UserArticlePermissions</text></g></g><g transform="translate(-6,-86) scale(1,1)"><g><path fill="none" stroke="none"/><text fill="#000000" stroke="none" font-family="Arial" font-size="13px" font-style="normal" font-weight="normal" text-decoration="none" x="349" y="386.5">perms: UserPermissions</text></g></g><g transform="translate(-6,-86) scale(1,1)"><g><path fill="none" stroke="none"/><text fill="#000000" stroke="none" font-family="Arial" font-size="13px" font-style="normal" font-weight="normal" text-decoration="none" x="349" y="401.5">user_id: int</text></g></g><g transform="translate(-6,-86) scale(1,1)"><g><path fill="none" stroke="none"/><text fill="#000000" stroke="none" font-family="Arial" font-size="13px" font-style="normal" font-weight="normal" text-decoration="none" x="349" y="416.5">art_managers: ArticleManager[]</text></g></g><g transform="translate(-6,-86) scale(1,1)"><rect fill="#C0C0C0" stroke="none" x="207" y="527" width="102.919921875" height="55" opacity="0.2"/></g><g transform="translate(-6,-86) scale(1,1)"><rect fill="#ffffff" stroke="none" x="200" y="520" width="102.919921875" height="55"/></g><g transform="translate(-6,-86) scale(1,1)"><path fill="none" stroke="#000000" d="M 200 520 L 302.919921875 520 L 302.919921875 575 L 200 575 L 200 520 Z Z" stroke-miterlimit="10"/></g><g transform="translate(-6,-86) scale(1,1)"><path fill="none" stroke="#000000" d="M 200 545 L 302.919921875 545" stroke-miterlimit="10"/></g><g transform="translate(-6,-86) scale(1,1)"><path fill="none" stroke="#000000" d="M 200 555 L 302.919921875 555" stroke-miterlimit="10"/></g><g transform="translate(-6,-86) scale(1,1)"><g><path fill="none" stroke="none"/><text fill="#000000" stroke="none" font-family="Arial" font-size="13px" font-style="normal" font-weight="bold" text-decoration="none" x="207.746826171875" y="539.5">ArticleManager</text></g></g><g transform="translate(-6,-86) scale(1,1)"><path fill="none" stroke="#000000" d="M 286 519 L 375 447" stroke-miterlimit="10"/></g><g transform="translate(-6,-86) scale(1,1)"><path fill="#FFFFFF" stroke="none" d="M 369.74660931046884 456.66446513073265 L 375 447 L 364.45148298872823 450.1191006496922 L 357.8961383549106 460.8368318926566"/></g><g transform="translate(-6,-86) scale(1,1)"><path fill="none" stroke="#000000" d="M 369.74660931046884 456.66446513073265 L 375 447 L 364.45148298872823 450.1191006496922 L 357.8961383549106 460.8368318926566 L 369.74660931046884 456.66446513073265" stroke-miterlimit="10"/></g><g transform="translate(-6,-86) scale(1,1)"><g><path fill="none" stroke="none"/><text fill="#000000" stroke="none" font-family="Arial" font-size="13px" font-style="normal" font-weight="normal" text-decoration="none" x="267" y="446">+Restricts Usage</text></g></g><g transform="translate(-6,-86) scale(1,1)"><g><path fill="none" stroke="none"/><text fill="#000000" stroke="none" font-family="Arial" font-size="13px" font-style="normal" font-weight="normal" text-decoration="none" x="265" y="516">1..*</text></g></g><g transform="translate(-6,-86) scale(1,1)"><rect fill="#C0C0C0" stroke="none" x="583" y="519" width="115.2216796875" height="55" opacity="0.2"/></g><g transform="translate(-6,-86) scale(1,1)"><rect fill="#ffffff" stroke="none" x="576" y="512" width="115.2216796875" height="55"/></g><g transform="translate(-6,-86) scale(1,1)"><path fill="none" stroke="#000000" d="M 576 512 L 691.2216796875 512 L 691.2216796875 567 L 576 567 L 576 512 Z Z" stroke-miterlimit="10"/></g><g transform="translate(-6,-86) scale(1,1)"><path fill="none" stroke="#000000" d="M 576 537 L 691.2216796875 537" stroke-miterlimit="10"/></g><g transform="translate(-6,-86) scale(1,1)"><path fill="none" stroke="#000000" d="M 576 547 L 691.2216796875 547" stroke-miterlimit="10"/></g><g transform="translate(-6,-86) scale(1,1)"><g><path fill="none" stroke="none"/><text fill="#000000" stroke="none" font-family="Arial" font-size="13px" font-style="normal" font-weight="bold" text-decoration="none" x="584.489501953125" y="531.5">UserPermissions</text></g></g><g transform="translate(-6,-86) scale(1,1)"><path fill="none" stroke="#000000" d="M 595 511 L 509 447" stroke-miterlimit="10"/></g><g transform="translate(-6,-86) scale(1,1)"><path fill="#FFFFFF" stroke="none" d="M 519.6659628217785 449.69021134568237 L 509 447 L 514.6397079538062 456.4442413245202 L 526.6491308680286 460.1342369250445"/></g><g transform="translate(-6,-86) scale(1,1)"><path fill="none" stroke="#000000" d="M 519.6659628217785 449.69021134568237 L 509 447 L 514.6397079538062 456.4442413245202 L 526.6491308680286 460.1342369250445 L 519.6659628217785 449.69021134568237" stroke-miterlimit="10"/></g><g transform="translate(-6,-86) scale(1,1)"><g><path fill="none" stroke="none"/><text fill="#000000" stroke="none" font-family="Arial" font-size="13px" font-style="normal" font-weight="normal" text-decoration="none" x="549" y="442">+Checks Permissions</text></g></g><g transform="translate(-6,-86) scale(1,1)"><g><path fill="none" stroke="none"/><text fill="#000000" stroke="none" font-family="Arial" font-size="13px" font-style="normal" font-weight="normal" text-decoration="none" x="597" y="508">1</text></g></g><g transform="translate(-6,-86) scale(1,1)"><rect fill="#C0C0C0" stroke="none" x="31" y="103" width="127.6" height="15" opacity="0.2"/></g><g transform="translate(-6,-86) scale(1,1)"><rect fill="#C0C0C0" stroke="none" x="31" y="117" width="319" height="161" opacity="0.2"/></g><g transform="translate(-6,-86) scale(1,1)"><rect fill="#ffffff" stroke="none" x="24" y="111" width="319" height="160"/></g><g transform="translate(-6,-86) scale(1,1)"><path fill="none" stroke="#000000" d="M 24 111 L 343 111 L 343 271 L 24 271 L 24 111 Z Z" stroke-miterlimit="10"/></g><g transform="translate(-6,-86) scale(1,1)"><rect fill="#ffffff" stroke="none" x="24" y="96" width="127.6" height="15"/></g><g transform="translate(-6,-86) scale(1,1)"><path fill="none" stroke="#000000" d="M 24 96 L 151.6 96 L 151.6 111 L 24 111 L 24 96 Z Z" stroke-miterlimit="10"/></g><g transform="translate(-6,-86) scale(1,1)"><rect fill="#ffffff" stroke="none" x="24" y="110" width="319" height="161"/></g><g transform="translate(-6,-86) scale(1,1)"><path fill="none" stroke="#000000" d="M 24 110 L 343 110 L 343 271 L 24 271 L 24 110 Z Z" stroke-miterlimit="10"/></g><g transform="translate(-6,-86) scale(1,1)"><g><path fill="none" stroke="none"/><text fill="#000000" stroke="none" font-family="Arial" font-size="13px" font-style="normal" font-weight="bold" text-decoration="none" x="162.905029296875" y="130.5">Search</text></g></g><g transform="translate(-6,-86) scale(1,1)"><rect fill="#C0C0C0" stroke="none" x="495" y="103" width="140.39999999999998" height="15" opacity="0.2"/></g><g transform="translate(-6,-86) scale(1,1)"><rect fill="#C0C0C0" stroke="none" x="495" y="117" width="351" height="153" opacity="0.2"/></g><g transform="translate(-6,-86) scale(1,1)"><rect fill="#ffffff" stroke="none" x="488" y="111" width="351" height="152"/></g><g transform="translate(-6,-86) scale(1,1)"><path fill="none" stroke="#000000" d="M 488 111 L 839 111 L 839 263 L 488 263 L 488 111 Z Z" stroke-miterlimit="10"/></g><g transform="translate(-6,-86) scale(1,1)"><rect fill="#ffffff" stroke="none" x="488" y="96" width="140.39999999999998" height="15"/></g><g transform="translate(-6,-86) scale(1,1)"><path fill="none" stroke="#000000" d="M 488 96 L 628.4 96 L 628.4 111 L 488 111 L 488 96 Z Z" stroke-miterlimit="10"/></g><g transform="translate(-6,-86) scale(1,1)"><rect fill="#ffffff" stroke="none" x="488" y="110" width="351" height="153"/></g><g transform="translate(-6,-86) scale(1,1)"><path fill="none" stroke="#000000" d="M 488 110 L 839 110 L 839 263 L 488 263 L 488 110 Z Z" stroke-miterlimit="10"/></g><g transform="translate(-6,-86) scale(1,1)"><g><path fill="none" stroke="none"/><text fill="#000000" stroke="none" font-family="Arial" font-size="13px" font-style="normal" font-weight="bold" text-decoration="none" x="637.12548828125" y="130.5">Category</text></g></g></g></svg>