<svg version="1.1" xmlns="http://www.w3.org/2000/svg" xmlns:xlink="http://www.w3.org/1999/xlink" width="891" height="571"><defs/><g><g transform="translate(-6,-78) scale(1,1)"><rect fill="#C0C0C0" stroke="none" x="23" y="463" width="118" height="15" opacity="0.2"/></g><g transform="translate(-6,-78) scale(1,1)"><rect fill="#C0C0C0" stroke="none" x="23" y="477" width="295" height="169" opacity="0.2"/></g><g transform="translate(-6,-78) scale(1,1)"><rect fill="#ffffff" stroke="none" x="16" y="471" width="295" height="168"/></g><g transform="translate(-6,-78) scale(1,1)"><path fill="none" stroke="#000000" d="M 16 471 L 311 471 L 311 639 L 16 639 L 16 471 Z Z" stroke-miterlimit="10"/></g><g transform="translate(-6,-78) scale(1,1)"><rect fill="#ffffff" stroke="none" x="16" y="456" width="118" height="15"/></g><g transform="translate(-6,-78) scale(1,1)"><path fill="none" stroke="#000000" d="M 16 456 L 134 456 L 134 471 L 16 471 L 16 456 Z Z" stroke-miterlimit="10"/></g><g transform="translate(-6,-78) scale(1,1)"><rect fill="#ffffff" stroke="none" x="16" y="470" width="295" height="169"/></g><g transform="translate(-6,-78) scale(1,1)"><path fill="none" stroke="#000000" d="M 16 470 L 311 470 L 311 639 L 16 639 L 16 470 Z Z" stroke-miterlimit="10"/></g><g transform="translate(-6,-78) scale(1,1)"><g><path fill="none" stroke="none"/><text fill="#000000" stroke="none" font-family="Arial" font-size="13px" font-style="normal" font-weight="bold" text-decoration="none" x="145.44091796875" y="490.5">Article</text></g></g><g transform="translate(-6,-78) scale(1,1)"><rect fill="#C0C0C0" stroke="none" x="575" y="447" width="127.60000000000002" height="15" opacity="0.2"/></g><g transform="translate(-6,-78) scale(1,1)"><rect fill="#C0C0C0" stroke="none" x="575" y="461" width="319" height="169" opacity="0.2"/></g><g transform="translate(-6,-78) scale(1,1)"><rect fill="#ffffff" stroke="none" x="568" y="455" width="319" height="168"/></g><g transform="translate(-6,-78) scale(1,1)"><path fill="none" stroke="#000000" d="M 568 455 L 887 455 L 887 623 L 568 623 L 568 455 Z Z" stroke-miterlimit="10"/></g><g transform="translate(-6,-78) scale(1,1)"><rect fill="#ffffff" stroke="none" x="568" y="440" width="127.60000000000002" height="15"/></g><g transform="translate(-6,-78) scale(1,1)"><path fill="none" stroke="#000000" d="M 568 440 L 695.6 440 L 695.6 455 L 568 455 L 568 440 Z Z" stroke-miterlimit="10"/></g><g transform="translate(-6,-78) scale(1,1)"><rect fill="#ffffff" stroke="none" x="568" y="454" width="319" height="169"/></g><g transform="translate(-6,-78) scale(1,1)"><path fill="none" stroke="#000000" d="M 568 454 L 887 454 L 887 623 L 568 623 L 568 454 Z Z" stroke-miterlimit="10"/></g><g transform="translate(-6,-78) scale(1,1)"><g><path fill="none" stroke="none"/><text fill="#000000" stroke="none" font-family="Arial" font-size="13px" font-style="normal" font-weight="bold" text-decoration="none" x="713.7763671875" y="474.5">User</text></g></g><g transform="translate(-6,-78) scale(1,1)"><rect fill="#C0C0C0" stroke="none" x="351" y="487" width="191.08251953125" height="95" opacity="0.2"/></g><g transform="translate(-6,-78) scale(1,1)"><rect fill="#ffffff" stroke="none" x="344" y="480" width="191.08251953125" height="95"/></g><g transform="translate(-6,-78) scale(1,1)"><path fill="none" stroke="#000000" d="M 344 480 L 535.08251953125 480 L 535.08251953125 575 L 344 575 L 344 480 Z Z" stroke-miterlimit="10"/></g><g transform="translate(-6,-78) scale(1,1)"><path fill="none" stroke="#000000" d="M 344 505 L 535.08251953125 505" stroke-miterlimit="10"/></g><g transform="translate(-6,-78) scale(1,1)"><path fill="none" stroke="#000000" d="M 344 528 L 535.08251953125 528" stroke-miterlimit="10"/></g><g transform="translate(-6,-78) scale(1,1)"><g><path fill="none" stroke="none"/><text fill="#000000" stroke="none" font-family="Arial" font-size="13px" font-style="normal" font-weight="bold" text-decoration="none" x="372.36083984375" y="499.5">UserArticlePermissions</text></g></g><g transform="translate(-6,-78) scale(1,1)"><g><path fill="none" stroke="none"/><text fill="#000000" stroke="none" font-family="Arial" font-size="13px" font-style="normal" font-weight="normal" text-decoration="none" x="349" y="522.5">art_managers: ArticleManager[]</text></g></g><g transform="translate(-6,-78) scale(1,1)"><rect fill="#C0C0C0" stroke="none" x="103" y="519" width="102.919921875" height="55" opacity="0.2"/></g><g transform="translate(-6,-78) scale(1,1)"><rect fill="#ffffff" stroke="none" x="96" y="512" width="102.919921875" height="55"/></g><g transform="translate(-6,-78) scale(1,1)"><path fill="none" stroke="#000000" d="M 96 512 L 198.919921875 512 L 198.919921875 567 L 96 567 L 96 512 Z Z" stroke-miterlimit="10"/></g><g transform="translate(-6,-78) scale(1,1)"><path fill="none" stroke="#000000" d="M 96 537 L 198.919921875 537" stroke-miterlimit="10"/></g><g transform="translate(-6,-78) scale(1,1)"><path fill="none" stroke="#000000" d="M 96 547 L 198.919921875 547" stroke-miterlimit="10"/></g><g transform="translate(-6,-78) scale(1,1)"><g><path fill="none" stroke="none"/><text fill="#000000" stroke="none" font-family="Arial" font-size="13px" font-style="normal" font-weight="bold" text-decoration="none" x="103.746826171875" y="531.5">ArticleManager</text></g></g><g transform="translate(-6,-78) scale(1,1)"><path fill="none" stroke="#000000" d="M 200 537 L 343 531" stroke-miterlimit="10"/></g><g transform="translate(-6,-78) scale(1,1)"><path fill="#FFFFFF" stroke="none" d="M 333.02272678453954 535.6318483550367 L 343 531 L 332.66979107032284 527.2202138328712 L 321.019339718526 531.9222654663555"/></g><g transform="translate(-6,-78) scale(1,1)"><path fill="none" stroke="#000000" d="M 333.02272678453954 535.6318483550367 L 343 531 L 332.66979107032284 527.2202138328712 L 321.019339718526 531.9222654663555 L 333.02272678453954 535.6318483550367" stroke-miterlimit="10"/></g><g transform="translate(-6,-78) scale(1,1)"><g><path fill="none" stroke="none"/><text fill="#000000" stroke="none" font-family="Arial" font-size="13px" font-style="normal" font-weight="normal" text-decoration="none" x="208" y="555">+Restricts Article Changes</text></g></g><g transform="translate(-6,-78) scale(1,1)"><g><path fill="none" stroke="none"/><text fill="#000000" stroke="none" font-family="Arial" font-size="13px" font-style="normal" font-weight="normal" text-decoration="none" x="208" y="534">1..*</text></g></g><g transform="translate(-6,-78) scale(1,1)"><rect fill="#C0C0C0" stroke="none" x="31" y="103" width="127.6" height="15" opacity="0.2"/></g><g transform="translate(-6,-78) scale(1,1)"><rect fill="#C0C0C0" stroke="none" x="31" y="117" width="319" height="161" opacity="0.2"/></g><g transform="translate(-6,-78) scale(1,1)"><rect fill="#ffffff" stroke="none" x="24" y="111" width="319" height="160"/></g><g transform="translate(-6,-78) scale(1,1)"><path fill="none" stroke="#000000" d="M 24 111 L 343 111 L 343 271 L 24 271 L 24 111 Z Z" stroke-miterlimit="10"/></g><g transform="translate(-6,-78) scale(1,1)"><rect fill="#ffffff" stroke="none" x="24" y="96" width="127.6" height="15"/></g><g transform="translate(-6,-78) scale(1,1)"><path fill="none" stroke="#000000" d="M 24 96 L 151.6 96 L 151.6 111 L 24 111 L 24 96 Z Z" stroke-miterlimit="10"/></g><g transform="translate(-6,-78) scale(1,1)"><rect fill="#ffffff" stroke="none" x="24" y="110" width="319" height="161"/></g><g transform="translate(-6,-78) scale(1,1)"><path fill="none" stroke="#000000" d="M 24 110 L 343 110 L 343 271 L 24 271 L 24 110 Z Z" stroke-miterlimit="10"/></g><g transform="translate(-6,-78) scale(1,1)"><g><path fill="none" stroke="none"/><text fill="#000000" stroke="none" font-family="Arial" font-size="13px" font-style="normal" font-weight="bold" text-decoration="none" x="162.905029296875" y="130.5">Search</text></g></g><g transform="translate(-6,-78) scale(1,1)"><rect fill="#C0C0C0" stroke="none" x="535" y="95" width="140.39999999999998" height="15" opacity="0.2"/></g><g transform="translate(-6,-78) scale(1,1)"><rect fill="#C0C0C0" stroke="none" x="535" y="109" width="351" height="153" opacity="0.2"/></g><g transform="translate(-6,-78) scale(1,1)"><rect fill="#ffffff" stroke="none" x="528" y="103" width="351" height="152"/></g><g transform="translate(-6,-78) scale(1,1)"><path fill="none" stroke="#000000" d="M 528 103 L 879 103 L 879 255 L 528 255 L 528 103 Z Z" stroke-miterlimit="10"/></g><g transform="translate(-6,-78) scale(1,1)"><rect fill="#ffffff" stroke="none" x="528" y="88" width="140.39999999999998" height="15"/></g><g transform="translate(-6,-78) scale(1,1)"><path fill="none" stroke="#000000" d="M 528 88 L 668.4 88 L 668.4 103 L 528 103 L 528 88 Z Z" stroke-miterlimit="10"/></g><g transform="translate(-6,-78) scale(1,1)"><rect fill="#ffffff" stroke="none" x="528" y="102" width="351" height="153"/></g><g transform="translate(-6,-78) scale(1,1)"><path fill="none" stroke="#000000" d="M 528 102 L 879 102 L 879 255 L 528 255 L 528 102 Z Z" stroke-miterlimit="10"/></g><g transform="translate(-6,-78) scale(1,1)"><g><path fill="none" stroke="none"/><text fill="#000000" stroke="none" font-family="Arial" font-size="13px" font-style="normal" font-weight="bold" text-decoration="none" x="677.12548828125" y="122.5">Category</text></g></g><g transform="translate(-6,-78) scale(1,1)"><rect fill="#C0C0C0" stroke="none" x="639" y="159" width="118.80810546875" height="44" opacity="0.2"/></g><g transform="translate(-6,-78) scale(1,1)"><rect fill="#ffffff" stroke="none" x="632" y="152" width="118.80810546875" height="44"/></g><g transform="translate(-6,-78) scale(1,1)"><path fill="none" stroke="#000000" d="M 632 152 L 750.80810546875 152 L 750.80810546875 196 L 632 196 L 632 152 Z Z" stroke-miterlimit="10"/></g><g transform="translate(-6,-78) scale(1,1)"><path fill="none" stroke="#000000" d="M 632 177 L 750.80810546875 177" stroke-miterlimit="10"/></g><g transform="translate(-6,-78) scale(1,1)"><path fill="none" stroke="#000000" d="M 632 187 L 750.80810546875 187" stroke-miterlimit="10"/></g><g transform="translate(-6,-78) scale(1,1)"><g><path fill="none" stroke="none"/><text fill="#000000" stroke="none" font-family="Arial" font-size="13px" font-style="normal" font-weight="bold" text-decoration="none" x="639.37548828125" y="171.5">CategoryManager</text></g></g><g transform="translate(-6,-78) scale(1,1)"><path fill="none" stroke="#000000" d="M 536 526 L 655 524" stroke-miterlimit="10"/></g><g transform="translate(-6,-78) scale(1,1)"><path fill="#FFFFFF" stroke="none" d="M 634.8189967015753 532.7594009994391 L 655 524 L 634.5360438707003 515.9237075623714"/></g><g transform="translate(-6,-78) scale(1,1)"><path fill="none" stroke="#000000" d="M 634.8189967015753 532.7594009994391 L 655 524 L 634.5360438707003 515.9237075623714 L 634.8189967015753 532.7594009994391" stroke-miterlimit="10"/></g><g transform="translate(-6,-78) scale(1,1)"><g><path fill="none" stroke="none"/><text fill="#000000" stroke="none" font-family="Arial" font-size="13px" font-style="normal" font-weight="normal" text-decoration="none" x="531" y="541">+Gets Permissions</text></g></g><g transform="translate(-6,-78) scale(1,1)"><rect fill="#C0C0C0" stroke="none" x="663" y="503" width="115.2216796875" height="55" opacity="0.2"/></g><g transform="translate(-6,-78) scale(1,1)"><rect fill="#ffffff" stroke="none" x="656" y="496" width="115.2216796875" height="55"/></g><g transform="translate(-6,-78) scale(1,1)"><path fill="none" stroke="#000000" d="M 656 496 L 771.2216796875 496 L 771.2216796875 551 L 656 551 L 656 496 Z Z" stroke-miterlimit="10"/></g><g transform="translate(-6,-78) scale(1,1)"><path fill="none" stroke="#000000" d="M 656 521 L 771.2216796875 521" stroke-miterlimit="10"/></g><g transform="translate(-6,-78) scale(1,1)"><path fill="none" stroke="#000000" d="M 656 531 L 771.2216796875 531" stroke-miterlimit="10"/></g><g transform="translate(-6,-78) scale(1,1)"><g><path fill="none" stroke="none"/><text fill="#000000" stroke="none" font-family="Arial" font-size="13px" font-style="normal" font-weight="bold" text-decoration="none" x="664.489501953125" y="515.5">UserPermissions</text></g></g><g transform="translate(-6,-78) scale(1,1)"><rect fill="#C0C0C0" stroke="none" x="591" y="295" width="217.47607421875" height="87" opacity="0.2"/></g><g transform="translate(-6,-78) scale(1,1)"><rect fill="#ffffff" stroke="none" x="584" y="288" width="217.47607421875" height="87"/></g><g transform="translate(-6,-78) scale(1,1)"><path fill="none" stroke="#000000" d="M 584 288 L 801.47607421875 288 L 801.47607421875 375 L 584 375 L 584 288 Z Z" stroke-miterlimit="10"/></g><g transform="translate(-6,-78) scale(1,1)"><path fill="none" stroke="#000000" d="M 584 313 L 801.47607421875 313" stroke-miterlimit="10"/></g><g transform="translate(-6,-78) scale(1,1)"><path fill="none" stroke="#000000" d="M 584 336 L 801.47607421875 336" stroke-miterlimit="10"/></g><g transform="translate(-6,-78) scale(1,1)"><g><path fill="none" stroke="none"/><text fill="#000000" stroke="none" font-family="Arial" font-size="13px" font-style="normal" font-weight="bold" text-decoration="none" x="617.2421875" y="307.5">UserCategoryPermissions</text></g></g><g transform="translate(-6,-78) scale(1,1)"><g><path fill="none" stroke="none"/><text fill="#000000" stroke="none" font-family="Arial" font-size="13px" font-style="normal" font-weight="normal" text-decoration="none" x="589" y="330.5">cat_managers: CategoryManager[]</text></g></g><g transform="translate(-6,-78) scale(1,1)"><path fill="none" stroke="#000000" d="M 691 197 L 692 287" stroke-miterlimit="10"/></g><g transform="translate(-6,-78) scale(1,1)"><path fill="#FFFFFF" stroke="none" d="M 687.6778304268117 276.8847219424968 L 692 287 L 696.0963462934084 276.7911828773124 L 691.7555706433218 265.00135789896126"/></g><g transform="translate(-6,-78) scale(1,1)"><path fill="none" stroke="#000000" d="M 687.6778304268117 276.8847219424968 L 692 287 L 696.0963462934084 276.7911828773124 L 691.7555706433218 265.00135789896126 L 687.6778304268117 276.8847219424968" stroke-miterlimit="10"/></g><g transform="translate(-6,-78) scale(1,1)"><g><path fill="none" stroke="none"/><text fill="#000000" stroke="none" font-family="Arial" font-size="13px" font-style="normal" font-weight="normal" text-decoration="none" x="620" y="248">+Restricts Category Changes</text></g></g><g transform="translate(-6,-78) scale(1,1)"><g><path fill="none" stroke="none"/><text fill="#000000" stroke="none" font-family="Arial" font-size="13px" font-style="normal" font-weight="normal" text-decoration="none" x="669" y="225">1..*</text></g></g><g transform="translate(-6,-78) scale(1,1)"><path fill="none" stroke="#000000" d="M 697 376 L 710 495" stroke-miterlimit="10"/></g><g transform="translate(-6,-78) scale(1,1)"><path fill="#FFFFFF" stroke="none" d="M 699.423472075597 475.7091457663398 L 710 495 L 716.1619592267481 473.88057153974347"/></g><g transform="translate(-6,-78) scale(1,1)"><path fill="none" stroke="#000000" d="M 699.423472075597 475.7091457663398 L 710 495 L 716.1619592267481 473.88057153974347 L 699.423472075597 475.7091457663398" stroke-miterlimit="10"/></g><g transform="translate(-6,-78) scale(1,1)"><g><path fill="none" stroke="none"/><text fill="#000000" stroke="none" font-family="Arial" font-size="13px" font-style="normal" font-weight="normal" text-decoration="none" x="707" y="406">+Gets Permissions</text></g></g></g></svg>