<svg version="1.1" xmlns="http://www.w3.org/2000/svg" xmlns:xlink="http://www.w3.org/1999/xlink" width="891" height="571"><defs/><g><g transform="translate(-6,-78) scale(1,1)"><rect fill="#C0C0C0" stroke="none" x="23" y="463" width="118" height="15" opacity="0.2"/></g><g transform="translate(-6,-78) scale(1,1)"><rect fill="#C0C0C0" stroke="none" x="23" y="477" width="295" height="169" opacity="0.2"/></g><g transform="translate(-6,-78) scale(1,1)"><rect fill="#ffffff" stroke="none" x="16" y="471" width="295" height="168"/></g><g transform="translate(-6,-78) scale(1,1)"><path fill="none" stroke="#000000" d="M 16 471 L 311 471 L 311 639 L 16 639 L 16 471 Z Z" stroke-miterlimit="10"/></g><g transform="translate(-6,-78) scale(1,1)"><rect fill="#ffffff" stroke="none" x="16" y="456" width="118" height="15"/></g><g transform="translate(-6,-78) scale(1,1)"><path fill="none" stroke="#000000" d="M 16 456 L 134 456 L 134 471 L 16 471 L 16 456 Z Z" stroke-miterlimit="10"/></g><g transform="translate(-6,-78) scale(1,1)"><rect fill="#ffffff" stroke="none" x="16" y="470" width="295" height="169"/></g><g transform="translate(-6,-78) scale(1,1)"><path fill="none" stroke="#000000" d="M 16 470 L 311 470 L 311 639 L 16 639 L 16 470 Z Z" stroke-miterlimit="10"/></g><g transform="translate(-6,-78) scale(1,1)"><g><path fill="none" stroke="none"/><text fill="#000000" stroke="none" font-family="Arial" font-size="13px" font-style="normal" font-weight="bold" text-decoration="none" x="145.44091796875" y="490.5">Article</text></g></g><g transform="translate(-6,-78) scale(1,1)"><rect fill="#C0C0C0" stroke="none" x="575" y="447" width="127.60000000000002" height="15" opacity="0.2"/></g><g transform="translate(-6,-78) scale(1,1)"><rect fill="#C0C0C0" stroke="none" x="575" y="461" width="319" height="169" opacity="0.2"/></g><g transform="translate(-6,-78) scale(1,1)"><rect fill="#ffffff" stroke="none" x="568" y="455" width="319" height="168"/></g><g transform="translate(-6,-78) scale(1,1)"><path fill="none" stroke="#000000" d="M 568 455 L 887 455 L 887 623 L 568 623 L 568 455 Z Z" stroke-miterlimit="10"/></g><g transform="translate(-6,-78) scale(1,1)"><rect fill="#ffffff" stroke="none" x="568" y="440" width="127.60000000000002" height="15"/></g><g transform="translate(-6,-78) scale(1,1)"><path fill="none" stroke="#000000" d="M 568 440 L 695.6 440 L 695.6 455 L 568 455 L 568 440 Z Z" stroke-miterlimit="10"/></g><g transform="translate(-6,-78) scale(1,1)"><rect fill="#ffffff" stroke="none" x="568" y="454" width="319" height="169"/></g><g transform="translate(-6,-78) scale(1,1)"><path fill="none" stroke="#000000" d="M 568 454 L 887 454 L 887 623 L 568 623 L 568 454 Z Z" stroke-miterlimit="10"/></g><g transform="translate(-6,-78) scale(1,1)"><g><path fill="none" stroke="none"/><text fill="#000000" stroke="none" font-family="Arial" font-size="13px" font-style="normal" font-weight="bold" text-decoration="none" x="713.7763671875" y="474.5">User</text></g></g><g transform="translate(-6,-78) scale(1,1)"><rect fill="#C0C0C0" stroke="none" x="351" y="487" width="205.09814453125" height="95" opacity="0.2"/></g><g transform="translate(-6,-78) scale(1,1)"><rect fill="#ffffff" stroke="none" x="344" y="480" width="205.09814453125" height="95"/></g><g transform="translate(-6,-78) scale(1,1)"><path fill="none" stroke="#000000" d="M 344 480 L 549.09814453125 480 L 549.09814453125 575 L 344 575 L 344 480 Z Z" stroke-miterlimit="10"/></g><g transform="translate(-6,-78) scale(1,1)"><path fill="none" stroke="#000000" d="M 344 505 L 549.09814453125 505" stroke-miterlimit="10"/></g><g transform="translate(-6,-78) scale(1,1)"><path fill="none" stroke="#000000" d="M 344 528 L 549.09814453125 528" stroke-miterlimit="10"/></g><g transform="translate(-6,-78) scale(1,1)"><g><path fill="none" stroke="none"/><text fill="#000000" stroke="none" font-family="Arial" font-size="13px" font-style="normal" font-weight="bold" text-decoration="none" x="379.36865234375" y="499.5">UserArticlePermissions</text></g></g><g transform="translate(-6,-78) scale(1,1)"><g><path fill="none" stroke="none"/><text fill="#000000" stroke="none" font-family="Arial" font-size="13px" font-style="normal" font-weight="normal" text-decoration="none" x="349" y="522.5">art_managers: ArticleManager[]</text></g></g><g transform="translate(-6,-78) scale(1,1)"><path fill="none" stroke="#000000" d="M 223 562 L 343 543" stroke-miterlimit="10"/></g><g transform="translate(-6,-78) scale(1,1)"><path fill="#FFFFFF" stroke="none" d="M 333.6206716531211 548.7470165965859 L 343 543 L 332.3040589159092 540.4315677299843 L 321.27068494915005 546.4404748830513"/></g><g transform="translate(-6,-78) scale(1,1)"><path fill="none" stroke="#000000" d="M 333.6206716531211 548.7470165965859 L 343 543 L 332.3040589159092 540.4315677299843 L 321.27068494915005 546.4404748830513 L 333.6206716531211 548.7470165965859" stroke-miterlimit="10"/></g><g transform="translate(-6,-78) scale(1,1)"><g><path fill="none" stroke="none"/><text fill="#000000" stroke="none" font-family="Arial" font-size="13px" font-style="normal" font-weight="normal" text-decoration="none" x="221" y="572">+Restricts Article Changes</text></g></g><g transform="translate(-6,-78) scale(1,1)"><g><path fill="none" stroke="none"/><text fill="#000000" stroke="none" font-family="Arial" font-size="13px" font-style="normal" font-weight="normal" text-decoration="none" x="229" y="557">1..*</text></g></g><g transform="translate(-6,-78) scale(1,1)"><rect fill="#C0C0C0" stroke="none" x="31" y="103" width="127.6" height="15" opacity="0.2"/></g><g transform="translate(-6,-78) scale(1,1)"><rect fill="#C0C0C0" stroke="none" x="31" y="117" width="319" height="161" opacity="0.2"/></g><g transform="translate(-6,-78) scale(1,1)"><rect fill="#ffffff" stroke="none" x="24" y="111" width="319" height="160"/></g><g transform="translate(-6,-78) scale(1,1)"><path fill="none" stroke="#000000" d="M 24 111 L 343 111 L 343 271 L 24 271 L 24 111 Z Z" stroke-miterlimit="10"/></g><g transform="translate(-6,-78) scale(1,1)"><rect fill="#ffffff" stroke="none" x="24" y="96" width="127.6" height="15"/></g><g transform="translate(-6,-78) scale(1,1)"><path fill="none" stroke="#000000" d="M 24 96 L 151.6 96 L 151.6 111 L 24 111 L 24 96 Z Z" stroke-miterlimit="10"/></g><g transform="translate(-6,-78) scale(1,1)"><rect fill="#ffffff" stroke="none" x="24" y="110" width="319" height="161"/></g><g transform="translate(-6,-78) scale(1,1)"><path fill="none" stroke="#000000" d="M 24 110 L 343 110 L 343 271 L 24 271 L 24 110 Z Z" stroke-miterlimit="10"/></g><g transform="translate(-6,-78) scale(1,1)"><g><path fill="none" stroke="none"/><text fill="#000000" stroke="none" font-family="Arial" font-size="13px" font-style="normal" font-weight="bold" text-decoration="none" x="162.905029296875" y="130.5">Search</text></g></g><g transform="translate(-6,-78) scale(1,1)"><rect fill="#C0C0C0" stroke="none" x="535" y="95" width="140.39999999999998" height="15" opacity="0.2"/></g><g transform="translate(-6,-78) scale(1,1)"><rect fill="#C0C0C0" stroke="none" x="535" y="109" width="351" height="153" opacity="0.2"/></g><g transform="translate(-6,-78) scale(1,1)"><rect fill="#ffffff" stroke="none" x="528" y="103" width="351" height="152"/></g><g transform="translate(-6,-78) scale(1,1)"><path fill="none" stroke="#000000" d="M 528 103 L 879 103 L 879 255 L 528 255 L 528 103 Z Z" stroke-miterlimit="10"/></g><g transform="translate(-6,-78) scale(1,1)"><rect fill="#ffffff" stroke="none" x="528" y="88" width="140.39999999999998" height="15"/></g><g transform="translate(-6,-78) scale(1,1)"><path fill="none" stroke="#000000" d="M 528 88 L 668.4 88 L 668.4 103 L 528 103 L 528 88 Z Z" stroke-miterlimit="10"/></g><g transform="translate(-6,-78) scale(1,1)"><rect fill="#ffffff" stroke="none" x="528" y="102" width="351" height="153"/></g><g transform="translate(-6,-78) scale(1,1)"><path fill="none" stroke="#000000" d="M 528 102 L 879 102 L 879 255 L 528 255 L 528 102 Z Z" stroke-miterlimit="10"/></g><g transform="translate(-6,-78) scale(1,1)"><g><path fill="none" stroke="none"/><text fill="#000000" stroke="none" font-family="Arial" font-size="13px" font-style="normal" font-weight="bold" text-decoration="none" x="677.12548828125" y="122.5">Category</text></g></g><g transform="translate(-6,-78) scale(1,1)"><rect fill="#C0C0C0" stroke="none" x="711" y="143" width="126.88232421875" height="44" opacity="0.2"/></g><g transform="translate(-6,-78) scale(1,1)"><rect fill="#ffffff" stroke="none" x="704" y="136" width="126.88232421875" height="44"/></g><g transform="translate(-6,-78) scale(1,1)"><path fill="none" stroke="#000000" d="M 704 136 L 830.88232421875 136 L 830.88232421875 180 L 704 180 L 704 136 Z Z" stroke-miterlimit="10"/></g><g transform="translate(-6,-78) scale(1,1)"><path fill="none" stroke="#000000" d="M 704 161 L 830.88232421875 161" stroke-miterlimit="10"/></g><g transform="translate(-6,-78) scale(1,1)"><path fill="none" stroke="#000000" d="M 704 171 L 830.88232421875 171" stroke-miterlimit="10"/></g><g transform="translate(-6,-78) scale(1,1)"><g><path fill="none" stroke="none"/><text fill="#000000" stroke="none" font-family="Arial" font-size="13px" font-style="normal" font-weight="bold" text-decoration="none" x="715.41259765625" y="155.5">CategoryManager</text></g></g><g transform="translate(-6,-78) scale(1,1)"><path fill="none" stroke="#000000" d="M 550 542 L 631 554" stroke-miterlimit="10"/></g><g transform="translate(-6,-78) scale(1,1)"><path fill="#FFFFFF" stroke="none" d="M 609.6602953061702 559.3494862912376 L 631 554 L 612.1278920700761 542.6932081348731"/></g><g transform="translate(-6,-78) scale(1,1)"><path fill="none" stroke="#000000" d="M 609.6602953061702 559.3494862912376 L 631 554 L 612.1278920700761 542.6932081348731 L 609.6602953061702 559.3494862912376" stroke-miterlimit="10"/></g><g transform="translate(-6,-78) scale(1,1)"><g><path fill="none" stroke="none"/><text fill="#000000" stroke="none" font-family="Arial" font-size="13px" font-style="normal" font-weight="normal" text-decoration="none" x="552" y="533">+Gets Permissions</text></g></g><g transform="translate(-6,-78) scale(1,1)"><rect fill="#C0C0C0" stroke="none" x="639" y="543" width="120.90283203125" height="55" opacity="0.2"/></g><g transform="translate(-6,-78) scale(1,1)"><rect fill="#ffffff" stroke="none" x="632" y="536" width="120.90283203125" height="55"/></g><g transform="translate(-6,-78) scale(1,1)"><path fill="none" stroke="#000000" d="M 632 536 L 752.90283203125 536 L 752.90283203125 591 L 632 591 L 632 536 Z Z" stroke-miterlimit="10"/></g><g transform="translate(-6,-78) scale(1,1)"><path fill="none" stroke="#000000" d="M 632 561 L 752.90283203125 561" stroke-miterlimit="10"/></g><g transform="translate(-6,-78) scale(1,1)"><path fill="none" stroke="#000000" d="M 632 571 L 752.90283203125 571" stroke-miterlimit="10"/></g><g transform="translate(-6,-78) scale(1,1)"><g><path fill="none" stroke="none"/><text fill="#000000" stroke="none" font-family="Arial" font-size="13px" font-style="normal" font-weight="bold" text-decoration="none" x="643.330078125" y="555.5">UserPermissions</text></g></g><g transform="translate(-6,-78) scale(1,1)"><rect fill="#C0C0C0" stroke="none" x="591" y="295" width="222.35107421875" height="87" opacity="0.2"/></g><g transform="translate(-6,-78) scale(1,1)"><rect fill="#ffffff" stroke="none" x="584" y="288" width="222.35107421875" height="87"/></g><g transform="translate(-6,-78) scale(1,1)"><path fill="none" stroke="#000000" d="M 584 288 L 806.35107421875 288 L 806.35107421875 375 L 584 375 L 584 288 Z Z" stroke-miterlimit="10"/></g><g transform="translate(-6,-78) scale(1,1)"><path fill="none" stroke="#000000" d="M 584 313 L 806.35107421875 313" stroke-miterlimit="10"/></g><g transform="translate(-6,-78) scale(1,1)"><path fill="none" stroke="#000000" d="M 584 336 L 806.35107421875 336" stroke-miterlimit="10"/></g><g transform="translate(-6,-78) scale(1,1)"><g><path fill="none" stroke="none"/><text fill="#000000" stroke="none" font-family="Arial" font-size="13px" font-style="normal" font-weight="bold" text-decoration="none" x="619.6796875" y="307.5">UserCategoryPermissions</text></g></g><g transform="translate(-6,-78) scale(1,1)"><g><path fill="none" stroke="none"/><text fill="#000000" stroke="none" font-family="Arial" font-size="13px" font-style="normal" font-weight="normal" text-decoration="none" x="589" y="330.5">cat_managers: CategoryManager[]</text></g></g><g transform="translate(-6,-78) scale(1,1)"><path fill="none" stroke="#000000" d="M 757 181 L 713 287" stroke-miterlimit="10"/></g><g transform="translate(-6,-78) scale(1,1)"><path fill="#FFFFFF" stroke="none" d="M 713.008267117754 276.0000031066021 L 713 287 L 720.7840181313774 279.22767333867216 L 721.4343087761133 266.68098340299963"/></g><g transform="translate(-6,-78) scale(1,1)"><path fill="none" stroke="#000000" d="M 713.008267117754 276.0000031066021 L 713 287 L 720.7840181313774 279.22767333867216 L 721.4343087761133 266.68098340299963 L 713.008267117754 276.0000031066021" stroke-miterlimit="10"/></g><g transform="translate(-6,-78) scale(1,1)"><g><path fill="none" stroke="none"/><text fill="#000000" stroke="none" font-family="Arial" font-size="13px" font-style="normal" font-weight="normal" text-decoration="none" x="663" y="246">+Restricts Category Changes</text></g></g><g transform="translate(-6,-78) scale(1,1)"><g><path fill="none" stroke="none"/><text fill="#000000" stroke="none" font-family="Arial" font-size="13px" font-style="normal" font-weight="normal" text-decoration="none" x="728" y="203">1..*</text></g></g><g transform="translate(-6,-78) scale(1,1)"><path fill="none" stroke="#000000" d="M 694 376 L 692 535" stroke-miterlimit="10"/></g><g transform="translate(-6,-78) scale(1,1)"><path fill="#FFFFFF" stroke="none" d="M 683.8372749983807 514.5703666075982 L 692 535 L 700.6740141073165 514.7821494894716"/></g><g transform="translate(-6,-78) scale(1,1)"><path fill="none" stroke="#000000" d="M 683.8372749983807 514.5703666075982 L 692 535 L 700.6740141073165 514.7821494894716 L 683.8372749983807 514.5703666075982" stroke-miterlimit="10"/></g><g transform="translate(-6,-78) scale(1,1)"><g><path fill="none" stroke="none"/><text fill="#000000" stroke="none" font-family="Arial" font-size="13px" font-style="normal" font-weight="normal" text-decoration="none" x="701" y="434">+Gets Permissions</text></g></g><g transform="translate(-6,-78) scale(1,1)"><rect fill="#C0C0C0" stroke="none" x="559" y="159" width="103" height="47" opacity="0.2"/></g><g transform="translate(-6,-78) scale(1,1)"><rect fill="#ffffff" stroke="none" x="552" y="152" width="103" height="47"/></g><g transform="translate(-6,-78) scale(1,1)"><path fill="none" stroke="#000000" d="M 552 152 L 655 152 L 655 199 L 552 199 L 552 152 Z Z" stroke-miterlimit="10"/></g><g transform="translate(-6,-78) scale(1,1)"><path fill="none" stroke="#000000" d="M 552 177 L 655 177" stroke-miterlimit="10"/></g><g transform="translate(-6,-78) scale(1,1)"><path fill="none" stroke="#000000" d="M 552 187 L 655 187" stroke-miterlimit="10"/></g><g transform="translate(-6,-78) scale(1,1)"><g><path fill="none" stroke="none"/><text fill="#000000" stroke="none" font-family="Arial" font-size="13px" font-style="normal" font-weight="bold" text-decoration="none" x="577.12548828125" y="171.5">Category</text></g></g><g transform="translate(-6,-78) scale(1,1)"><rect fill="#C0C0C0" stroke="none" x="359" y="319" width="144" height="72" opacity="0.2"/></g><g transform="translate(-6,-78) scale(1,1)"><rect fill="#ffffff" stroke="none" x="352" y="312" width="144" height="72"/></g><g transform="translate(-6,-78) scale(1,1)"><path fill="none" stroke="#000000" d="M 352 312 L 496 312 L 496 384 L 352 384 L 352 312 Z Z" stroke-miterlimit="10"/></g><g transform="translate(-6,-78) scale(1,1)"><path fill="none" stroke="#000000" d="M 352 337 L 496 337" stroke-miterlimit="10"/></g><g transform="translate(-6,-78) scale(1,1)"><path fill="none" stroke="#000000" d="M 352 375 L 496 375" stroke-miterlimit="10"/></g><g transform="translate(-6,-78) scale(1,1)"><g><path fill="none" stroke="none"/><text fill="#000000" stroke="none" font-family="Arial" font-size="13px" font-style="normal" font-weight="bold" text-decoration="none" x="374.50732421875" y="331.5">ArticleCategories</text></g></g><g transform="translate(-6,-78) scale(1,1)"><g><path fill="none" stroke="none"/><text fill="#000000" stroke="none" font-family="Arial" font-size="13px" font-style="normal" font-weight="normal" text-decoration="none" x="357" y="354.5">articles: Article[]</text></g></g><g transform="translate(-6,-78) scale(1,1)"><g><path fill="none" stroke="none"/><text fill="#000000" stroke="none" font-family="Arial" font-size="13px" font-style="normal" font-weight="normal" text-decoration="none" x="357" y="369.5">categoriesOfArticles</text></g></g><g transform="translate(-6,-78) scale(1,1)"><path fill="none" stroke="#000000" d="M 577 200 L 462 311" stroke-miterlimit="10"/></g><g transform="translate(-6,-78) scale(1,1)"><path fill="#FFFFFF" stroke="none" d="M 466.38870076201414 300.91340961367536 L 462 311 L 472.23557653063995 306.9709836081976 L 477.829203676482 295.72137732096087"/></g><g transform="translate(-6,-78) scale(1,1)"><path fill="none" stroke="#000000" d="M 466.38870076201414 300.91340961367536 L 462 311 L 472.23557653063995 306.9709836081976 L 477.829203676482 295.72137732096087 L 466.38870076201414 300.91340961367536" stroke-miterlimit="10"/></g><g transform="translate(-6,-78) scale(1,1)"><g><path fill="none" stroke="none"/><text fill="#000000" stroke="none" font-family="Arial" font-size="13px" font-style="normal" font-weight="normal" text-decoration="none" x="450" y="262">+Contains</text></g></g><g transform="translate(-6,-78) scale(1,1)"><g><path fill="none" stroke="none"/><text fill="#000000" stroke="none" font-family="Arial" font-size="13px" font-style="normal" font-weight="normal" text-decoration="none" x="543" y="213">1..*</text></g></g><g transform="translate(-6,-78) scale(1,1)"><rect fill="#C0C0C0" stroke="none" x="119" y="551" width="110.46728515625" height="55" opacity="0.2"/></g><g transform="translate(-6,-78) scale(1,1)"><rect fill="#ffffff" stroke="none" x="112" y="544" width="110.46728515625" height="55"/></g><g transform="translate(-6,-78) scale(1,1)"><path fill="none" stroke="#000000" d="M 112 544 L 222.46728515625 544 L 222.46728515625 599 L 112 599 L 112 544 Z Z" stroke-miterlimit="10"/></g><g transform="translate(-6,-78) scale(1,1)"><path fill="none" stroke="#000000" d="M 112 569 L 222.46728515625 569" stroke-miterlimit="10"/></g><g transform="translate(-6,-78) scale(1,1)"><path fill="none" stroke="#000000" d="M 112 579 L 222.46728515625 579" stroke-miterlimit="10"/></g><g transform="translate(-6,-78) scale(1,1)"><g><path fill="none" stroke="none"/><text fill="#000000" stroke="none" font-family="Arial" font-size="13px" font-style="normal" font-weight="bold" text-decoration="none" x="123.5205078125" y="563.5">ArticleManager</text></g></g><g transform="translate(-6,-78) scale(1,1)"><rect fill="#C0C0C0" stroke="none" x="215" y="487" width="63" height="44" opacity="0.2"/></g><g transform="translate(-6,-78) scale(1,1)"><rect fill="#ffffff" stroke="none" x="208" y="480" width="63" height="44"/></g><g transform="translate(-6,-78) scale(1,1)"><path fill="none" stroke="#000000" d="M 208 480 L 271 480 L 271 524 L 208 524 L 208 480 Z Z" stroke-miterlimit="10"/></g><g transform="translate(-6,-78) scale(1,1)"><path fill="none" stroke="#000000" d="M 208 505 L 271 505" stroke-miterlimit="10"/></g><g transform="translate(-6,-78) scale(1,1)"><path fill="none" stroke="#000000" d="M 208 515 L 271 515" stroke-miterlimit="10"/></g><g transform="translate(-6,-78) scale(1,1)"><g><path fill="none" stroke="none"/><text fill="#000000" stroke="none" font-family="Arial" font-size="13px" font-style="normal" font-weight="bold" text-decoration="none" x="221.44091796875" y="499.5">Article</text></g></g><g transform="translate(-6,-78) scale(1,1)"><path fill="none" stroke="#000000" d="M 380 385 L 267 479" stroke-miterlimit="10"/></g><g transform="translate(-6,-78) scale(1,1)"><g><path fill="none" stroke="none"/><text fill="#000000" stroke="none" font-family="Arial" font-size="13px" font-style="normal" font-weight="normal" text-decoration="none" x="281" y="422">+Categorizes Articles</text></g></g></g></svg>