<svg xmlns="http://www.w3.org/2000/svg" xmlns:xlink="http://www.w3.org/1999/xlink" version="1.1" x="0" y="0" viewBox="0 0 20 25" enable-background="new 0 0 20 20" xml:space="preserve"><rect x="-167" y="-33" display="none" fill="#000000" width="198" height="87"/><polygon points="-100.01 27.43 -100.01 40 -145.99 40 -145.99 36.41 -126.23 10.18 -145.99 -17.6 -145.99 -20 -100.01 -20 -100.01 -6.35 -107.43 -15.57 -132.46 -15.81 -115.1 6.71 -132.46 30.66 -132.46 33.42 -106.95 33.42 "/><polygon points="-48.67 20.62 -48.67 29 -79.33 29 -79.33 26.6 -66.16 9.12 -79.33 -9.4 -79.33 -11 -48.67 -11 -48.67 -1.9 -53.62 -8.05 -70.31 -8.2 -58.73 6.8 -70.31 22.77 -70.31 24.61 -53.3 24.61 "/><polygon points="-10.63 19.71 -10.63 26 -33.62 26 -33.62 24.2 -23.74 11.09 -33.62 -2.8 -33.62 -4 -10.63 -4 -10.63 2.83 -14.34 -1.78 -26.85 -1.9 -18.17 9.35 -26.85 21.33 -26.85 22.71 -14.1 22.71 "/><polygon points="18.42 15.81 18.42 20 3.09 20 3.09 18.8 9.67 10.06 3.09 0.8 3.09 0 18.42 0 18.42 4.55 15.94 1.48 7.6 1.4 13.39 8.9 7.6 16.89 7.6 17.81 16.1 17.81 "/><text x="0" y="35" fill="#000000" font-size="5" font-weight="bold" font-family="'Helvetica Neue', Helvetica, Arial-Unicode, Arial, Sans-serif">Created by Alex Auda Samora</text><text x="0" y="40" fill="#000000" font-size="5" font-weight="bold" font-family="'Helvetica Neue', Helvetica, Arial-Unicode, Arial, Sans-serif">from the Noun Project</text></svg>