<?xml-stylesheet type="text/css" href="style.css"?>

<svg version="1.0" xmlns="http://www.w3.org/2000/svg" xmlns:xlink="http://www.w3.org/1999/xlink" width="1200px" height="600px" xml:space="preserve" onload="calculate();">
 	
 	<?Define Buttons?>
    <defs>
        <symbol id="button" overflow="visible">
            <rect x="-30" y="-10" rx="5" ry="5" width="100" height="20"/>
        </symbol>
        
        <symbol id="smallbutton" overflow="visible">
            <rect x="-30" y="-10" rx="5" ry="10" width="10" height="10"/>
        </symbol>
        
        
    </defs>
 		
 	<?labels?>	
 	<text x="260" y="40" font-family="sans-serif" font-size="15px" fill="black" text-anchor="end">Elastic Potential Energy: </text>
 	<text x="260" y="70" font-family="sans-serif" font-size="15px" fill="black" text-anchor="end">Distance Stretched:</text> 	
 	<text x="260" y="100" font-family="sans-serif" font-size="15px" fill="black" text-anchor="end">Spring Force Contact: </text>
 	<text x="330" y="100" font-family="sans-serif" font-size="15px" fill="black" >newton/meter</text>

	<?Values?>
 	<text id="pe" x="320" y="40" font-family="sans-serif" font-size="15px" fill="black" text-anchor="end">0</text>
 	<text id="dis" x="320" y="70" font-family="sans-serif" font-size="15px" fill="black" text-anchor="end">0</text>
 	<text id="sfc" x="320" y="100" font-family="sans-serif" font-size="15px" fill="black" text-anchor="end">10</text>
 	

    <?Bow?>
	<g transform="translate(200.000000,530.000000) scale(0.080000,-0.080000)"
	fill="#000000" stroke="none">
		<path d="M860 4851 c0 -11 4 -22 9 -26 22 -13 71 -98 86 -147 28 -95 13 -178
		-59 -332 -38 -81 -75 -150 -253 -468 -116 -208 -214 -426 -272 -603 -29 -87
		-44 -117 -72 -145 -34 -33 -36 -40 -43 -119 -8 -96 -91 -548 -106 -573 -18
		-32 -10 -78 34 -201 24 -67 52 -160 60 -207 24 -125 76 -322 92 -347 8 -13 27
		-29 44 -38 23 -12 44 -46 103 -168 40 -83 128 -250 195 -369 223 -400 258
		-483 249 -609 -5 -80 -21 -120 -78 -196 -32 -42 -32 -63 0 -63 25 0 100 92
		122 151 30 79 26 193 -12 304 -35 104 -147 333 -318 654 -91 169 -119 231
		-115 250 3 17 -9 59 -35 120 -24 56 -53 150 -71 233 l-31 140 31 34 c16 19 30
		38 30 43 0 10 -30 51 -88 122 -23 28 -41 57 -39 63 2 6 16 13 32 16 25 4 30
		11 40 58 11 46 10 56 -5 75 -9 12 -20 30 -23 41 -4 10 15 133 43 274 34 175
		47 258 39 262 -7 5 -6 24 6 62 12 44 13 61 4 81 -10 22 -7 41 22 124 34 99
		153 344 289 593 89 163 191 375 216 450 10 30 23 58 29 62 6 4 10 56 10 120 0
		128 -14 172 -81 253 -40 49 -84 62 -84 26z m124 -113 c24 -49 28 -70 29 -140
		0 -70 -5 -100 -36 -189 -35 -106 -113 -269 -222 -469 -168 -308 -265 -512
		-301 -635 -14 -47 -26 -68 -53 -89 -20 -15 -37 -23 -39 -18 -4 13 67 208 116
		318 61 139 121 254 254 492 211 376 255 487 246 614 -4 50 -13 80 -37 123 -32
		56 -32 56 -9 53 17 -2 31 -19 52 -60z m-534 -1538 c0 -29 -31 -153 -42 -166
		-7 -9 -69 -12 -110 -5 -13 2 -9 66 5 83 20 27 121 108 135 108 6 0 12 -9 12
		-20z m-37 -219 c13 -2 8 -42 -29 -236 -37 -195 -37 -208 -3 -256 15 -20 4 -66
		-16 -66 -8 0 -15 4 -15 9 0 4 7 8 15 8 21 0 19 20 -7 47 -17 18 -32 23 -69 23
		-42 0 -47 -3 -51 -25 -4 -21 0 -27 28 -37 18 -6 31 -14 29 -18 -4 -7 -103 -6
		-110 2 -7 7 96 531 107 545 9 11 51 12 121 4z m-231 -576 c9 -4 13 -16 11 -33
		-2 -18 17 -65 61 -147 55 -104 67 -121 92 -125 27 -5 29 -8 62 -153 18 -82 31
		-151 29 -153 -3 -3 -31 -6 -63 -7 l-58 -2 -13 45 c-7 24 -24 98 -37 165 -14
		66 -45 178 -70 249 -56 158 -58 178 -14 161z m183 -15 c-11 -5 -28 -11 -37
		-14 -32 -10 -19 -44 42 -117 33 -39 60 -79 60 -88 0 -29 -44 -63 -76 -59 -25
		3 -35 17 -91 129 -38 76 -61 133 -57 143 5 13 22 16 93 15 57 0 79 -3 66 -9z
		m123 -698 c46 -109 37 -118 -56 -62 -83 49 -87 53 -96 102 -7 37 -6 37 31 41
		83 9 83 9 121 -81z m80 -237 c34 -66 96 -183 138 -260 106 -193 208 -404 239
		-500 49 -146 42 -291 -19 -361 -35 -41 -49 -22 -21 29 35 62 47 151 30 229
		-24 113 -57 185 -235 503 -104 186 -260 489 -260 505 0 4 15 0 34 -9 27 -13
		44 -37 94 -136z"/>
	</g>
	
	<?arrow?>
	<g id="arrow" transform="translate(0,0)" fill="white" stroke-width="5">
	<line  x1="15" y1="330" x2="278.5" y2="330" stroke="black" fill="black" stroke-width="2.5" />
	<polygon  points="15 327, 15 333, 5 330" fill="black"/>
	<polygon  points="237 330, 271 325, 271 335" fill="black"/>
	</g>

	<?bowstring?>
	<line id="top" x1="281" y1="170" x2="278" y2="330" stroke="black" fill="black" stroke-width="1" />
	<line id="bottom" x1="278" y1="330" x2="278.5" y2="484" stroke="black" fill="black" stroke-width="1" />

	<?buttons?>
	
	<g id="out" onclick="stretch();" class="button">
        <use xlink:href="#button" x="190" y="550"/>
        <text style="text-anchor:middle;" class="textSmall" x="210" y="555">Pull</text>
    </g>
	 
	 <g id="in" onclick="letgo();" class="button">
        <use xlink:href="#button" x="300" y="550"/>
        <text style="text-anchor:middle;" class="textSmall" x="320" y="555">Release</text>
    </g>
    
    <g id="increase" onclick="increase();" class="button">
        <use xlink:href="#smallbutton" x="311" y="93"/>
        <text style="text-anchor:middle;" class="textSmaller" x="286" y="90">▲</text>
    </g>
    
    <g id="decrease" onclick="decrease();" class="button">
        <use xlink:href="#smallbutton" x="311" y="107"/>
        <text style="text-anchor:middle;" class="textSmaller" x="286" y="106">▼</text>
    </g>

     <script type="text/javascript" xlink:href="bow.js"></script>
</svg>



