<?xml-stylesheet type="text/css" href="style.css"?>

<!--
Name: ProjectileMotion.svg
Created By: viss3240 - Jordan Visser
WLU ID: 120513240
Date: July 27, 2016

This Diagram will show a basic projectile motion problem. On page load call calculate(); from ProjectileMotion.js
inputs: initial velocity and lanuch angle
outputs: max height, time of flight and horizontal distance
-->

<svg version="1.0" xmlns="http://www.w3.org/2000/svg" xmlns:xlink="http://www.w3.org/1999/xlink" width="1000px" height="600px" xml:space="preserve" onload="calculate();">
    <!--Grid Lines -->

    <g stroke="black" opacity="0.5">
        <!--Vertical Lines -->
        <line x1="150" y1="500" x2="150" y2="200"/>
        <line x1="200" y1="500" x2="200" y2="200"/>
        <line x1="250" y1="500" x2="250" y2="200"/>
        <line x1="300" y1="500" x2="300" y2="200"/>
        <line x1="350" y1="500" x2="350" y2="200"/>
        <line x1="400" y1="500" x2="400" y2="200"/>
        <line x1="450" y1="500" x2="450" y2="200"/>
        <line x1="500" y1="500" x2="500" y2="200"/>
        <line x1="550" y1="500" x2="550" y2="200"/>
        <line x1="600" y1="500" x2="600" y2="200"/>
        <line x1="650" y1="500" x2="650" y2="200"/>
        <line x1="700" y1="500" x2="700" y2="200"/>
        <line x1="750" y1="500" x2="750" y2="200"/>
        <line x1="800" y1="500" x2="800" y2="200"/>
        <line x1="850" y1="500" x2="850" y2="200"/>
	<line x1="900" y1="500" x2="900" y2="200"/>
        <line x1="950" y1="500" x2="950" y2="200"/>
        <line x1="1000" y1="500" x2="1000" y2="200"/>

        <!--Horizontal Lines -->
        <line x1="100" y1="450" x2="1000" y2="450"/>
        <line x1="100" y1="400" x2="1000" y2="400"/>
        <line x1="100" y1="350" x2="1000" y2="350"/>
        <line x1="100" y1="300" x2="1000" y2="300"/>
        <line x1="100" y1="250" x2="1000" y2="250"/>
        <line x1="100" y1="200" x2="1000" y2="200"/>
    </g>
	<!-- x and y axis are darker than the other gridlines  -->
	<line id="xaxis" x1="100" y1="500" x2="1000" y2="500" stroke="black"/>
    <line id="yaxis" x1="100" y1="500" x2="100" y2="200" stroke="black"/>
    
	<!-- Grid Numbers -->
    <g>
        <text x="100" y="520" font-family="'Arial'" font-size="12">0</text>
        <text x="150" y="520" font-family="'Arial'" font-size="12">50</text>
        <text x="200" y="520" font-family="'Arial'" font-size="12">100</text>
        <text x="250" y="520" font-family="'Arial'" font-size="12">150</text>
        <text x="300" y="520" font-family="'Arial'" font-size="12">200</text>
        <text x="350" y="520" font-family="'Arial'" font-size="12">250</text>
        <text x="400" y="520" font-family="'Arial'" font-size="12">300</text>
        <text x="450" y="520" font-family="'Arial'" font-size="12">350</text>
        <text x="500" y="520" font-family="'Arial'" font-size="12">400</text>
        <text x="550" y="520" font-family="'Arial'" font-size="12">450</text>
        <text x="600" y="520" font-family="'Arial'" font-size="12">500</text>
        <text x="650" y="520" font-family="'Arial'" font-size="12">550</text>
        <text x="700" y="520" font-family="'Arial'" font-size="12">600</text>
        <text x="750" y="520" font-family="'Arial'" font-size="12">650</text>
        <text x="800" y="520" font-family="'Arial'" font-size="12">700</text>
        <text x="850" y="520" font-family="'Arial'" font-size="12">750</text>
        <text x="900" y="520" font-family="'Arial'" font-size="12">800</text>
        <text x="950" y="520" font-family="'Arial'" font-size="12">850</text>

        <text x="75" y="450" font-family="'Arial'" font-size="12">50</text>
        <text x="75" y="400" font-family="'Arial'" font-size="12">100</text>
        <text x="75" y="350" font-family="'Arial'" font-size="12">150</text>
        <text x="75" y="300" font-family="'Arial'" font-size="12">200</text>
        <text x="75" y="250" font-family="'Arial'" font-size="12">250</text>
        <text x="75" y="200" font-family="'Arial'" font-size="12">300</text>

    </g>
    
	<!-- The curve that represents the projectiles motion-->
    <path id="curve" d="" stroke="red" stroke-width="2" fill="none" class="curve" opacity="0.2"></path>

    <!--Descriptor tags-->
    <text x="50" y="20" font-family="'Arial'" font-size="12">Initial Velocity(m/s):
    </text>
    <text x="50" y="40" font-family="'Arial'" font-size="12">Launch Angle(Degrees):
    </text>

    <text x="50" y="80" font-family="'Arial'" font-size="12">Horizontal Distance(m):
    </text>
    <text x="50" y="100" font-family="'Arial'" font-size="12">Height(m):
    </text>
    <text x="50" y="120" font-family="'Arial'" font-size="12">Time Of Flight(s):
    </text>

    <!--Button definition-->
    <defs>
        <symbol id="button" overflow="visible">
            <rect x="-30" y="-10" rx="5" ry="5" width="80" height="20"/>
        </symbol>
    </defs>

    <!--Inputs-->
    <text id="vi" x="200" y="20" font-family="'Arial'" font-size="12">60</text>
    <text id="LaunchAngle" x="200" y="40" font-family="'Arial'" font-size="12">45</text>

    <!--Outputs-->
    <text id="DistanceOut" x="200" y="80" font-family="'Arial'" font-size="12"></text>
    <text id="HeightOut" x="200" y="100" font-family="'Arial'" font-size="12"></text>
    <text id="TimeOut" x="200" y="120" font-family="'Arial'" font-size="12"></text>
	
	<!-- three black dots at important positons
	start: (0,0) starting position
	mid: (half of horizontal, max height) point at maximum height
	end: (horizontal distance, 0) ending position
	-->
    <g stroke="black" stroke-width="1" fill="black">
        <circle id="start" cx="100" cy="500" r="3" opacity="0"/>
        <circle id="end" cx="400" cy="500" r="3" opacity="0"/>
        <circle id="mid" cx="400" cy="500" r="3" opacity="0"/>
    </g>

	<!-- projectile that will fallow the curve-->
    <circle id="ball" cx="100" cy="500" r="5" fill="blue" opacity="0"/>

    <text x="100" y="520" font-family="'Arial'" font-size="12">0</text>
	
	<!-- When this button is pressed increase the velocity-->
    <g id="IncreaseVelocity" onclick="IncreaseVelocity();" class="button">
        <use xlink:href="#button" x="335" y="15"/>
        <text style="text-anchor:middle;" class="textSmall" x="343" y="19">VelocityUp</text>
    </g>
	<!-- When this button is pressed decrease the velocity-->
    <g id="DecreaseVelocity" onclick="DecreaseVelocity();" class="button">
        <use xlink:href="#button" x="435" y="15"/>
        <text style="text-anchor:middle;" class="textSmall" x="445" y="19">VelocityDown</text>
    </g>
	<!-- When this button is pressed increase the launch angle-->
    <g id="IncreaseAngle" onclick="IncreaseAngle();" class="button">
        <use xlink:href="#button" x="335" y="40"/>
        <text style="text-anchor:middle;" class="textSmall" x="343" y="44">AngleUp</text>
    </g>
	<!-- When this button is pressed decrease the launch angle-->
    <g id="DecreaseAngle" onclick="DecreaseAngle();" class="button">
        <use xlink:href="#button" x="435" y="40"/>
        <text style="text-anchor:middle;" class="textSmall" x="445" y="44">AngleDown</text>
    </g>
	<!-- Launch the projectile at the given angle and initial velocity-->
    <g id="Launch" onclick="launch();" class="button">
        <use xlink:href="#button" x="335" y="100"/>
        <text style="text-anchor:middle;" class="textSmall" x="343" y="104">Launch</text>
    </g>
    <script type="text/javascript" xlink:href="ProjectileMotion.js"></script>
</svg>
