<svg version="1.1" xmlns="http://www.w3.org/2000/svg" xmlns:xlink="http://www.w3.org/1999/xlink" width="568.29052734375" height="372"><defs/><g><g transform="translate(-270,-166) scale(1,1)"><rect fill="#C0C0C0" stroke="none" x="303" y="183" width="175" height="143" opacity="0.2"/></g><g transform="translate(-270,-166) scale(1,1)"><rect fill="#ffffff" stroke="none" x="296" y="176" width="175" height="143"/></g><g transform="translate(-270,-166) scale(1,1)"><path fill="none" stroke="#000000" d="M 296 176 L 471 176 L 471 319 L 296 319 L 296 176 Z Z" stroke-miterlimit="10"/></g><g transform="translate(-270,-166) scale(1,1)"><path fill="none" stroke="#000000" d="M 296 201 L 471 201" stroke-miterlimit="10"/></g><g transform="translate(-270,-166) scale(1,1)"><g><path fill="none" stroke="none"/><text fill="#000000" stroke="none" font-family="Arial" font-size="13px" font-style="normal" font-weight="bold" text-decoration="none" x="357.5" y="195.5">Category</text></g></g><g transform="translate(-270,-166) scale(1,1)"><g><path fill="none" stroke="none"/><text fill="#000000" stroke="none" font-family="Arial" font-size="13px" font-style="normal" font-weight="normal" text-decoration="none" x="301" y="218.5">+name: string</text></g></g><g transform="translate(-270,-166) scale(1,1)"><g><path fill="none" stroke="none"/><text fill="#000000" stroke="none" font-family="Arial" font-size="13px" font-style="normal" font-weight="normal" text-decoration="none" x="301" y="233.5">+cat_id: int</text></g></g><g transform="translate(-270,-166) scale(1,1)"><g><path fill="none" stroke="none"/><text fill="#000000" stroke="none" font-family="Arial" font-size="13px" font-style="normal" font-weight="normal" text-decoration="none" x="301" y="248.5">+created_at: datetime</text></g></g><g transform="translate(-270,-166) scale(1,1)"><rect fill="#C0C0C0" stroke="none" x="599" y="207" width="236.29052734375" height="87" opacity="0.2"/></g><g transform="translate(-270,-166) scale(1,1)"><rect fill="#ffffff" stroke="none" x="592" y="200" width="236.29052734375" height="87"/></g><g transform="translate(-270,-166) scale(1,1)"><path fill="none" stroke="#000000" d="M 592 200 L 828.29052734375 200 L 828.29052734375 287 L 592 287 L 592 200 Z Z" stroke-miterlimit="10"/></g><g transform="translate(-270,-166) scale(1,1)"><path fill="none" stroke="#000000" d="M 592 225 L 828.29052734375 225" stroke-miterlimit="10"/></g><g transform="translate(-270,-166) scale(1,1)"><path fill="none" stroke="#000000" d="M 592 278 L 828.29052734375 278" stroke-miterlimit="10"/></g><g transform="translate(-270,-166) scale(1,1)"><g><path fill="none" stroke="none"/><text fill="#000000" stroke="none" font-family="Arial" font-size="13px" font-style="normal" font-weight="bold" text-decoration="none" x="659.145263671875" y="219.5">CategoryManager</text></g></g><g transform="translate(-270,-166) scale(1,1)"><g><path fill="none" stroke="none"/><text fill="#000000" stroke="none" font-family="Arial" font-size="13px" font-style="normal" font-weight="normal" text-decoration="none" x="597" y="242.5">categories: Category</text></g></g><g transform="translate(-270,-166) scale(1,1)"><g><path fill="none" stroke="none"/><text fill="#000000" stroke="none" font-family="Arial" font-size="13px" font-style="normal" font-weight="normal" text-decoration="none" x="597" y="257.5">permissions: UserArticlePermissions</text></g></g><g transform="translate(-270,-166) scale(1,1)"><g><path fill="none" stroke="none"/><text fill="#000000" stroke="none" font-family="Arial" font-size="13px" font-style="normal" font-weight="normal" text-decoration="none" x="597" y="272.5">user_id: int</text></g></g><g transform="translate(-270,-166) scale(1,1)"><path fill="none" stroke="#000000" d="M 591 244 L 472 246" stroke-miterlimit="10"/></g><g transform="translate(-270,-166) scale(1,1)"><path fill="none" stroke="#000000" d="M 482.09050164921234 241.62029950028048 L 472 246 L 482.23197806464987 250.0381462188143" stroke-miterlimit="10"/></g><g transform="translate(-270,-166) scale(1,1)"><g><path fill="none" stroke="none"/><text fill="#000000" stroke="none" font-family="Arial" font-size="13px" font-style="normal" font-weight="normal" text-decoration="none" x="483" y="266">+Create / Modify</text></g></g><g transform="translate(-270,-166) scale(1,1)"><g><path fill="none" stroke="none"/><text fill="#000000" stroke="none" font-family="Arial" font-size="13px" font-style="normal" font-weight="normal" text-decoration="none" x="566" y="238">1</text></g></g><g transform="translate(-270,-166) scale(1,1)"><g><path fill="none" stroke="none"/><text fill="#000000" stroke="none" font-family="Arial" font-size="13px" font-style="normal" font-weight="normal" text-decoration="none" x="483" y="240">1..*</text></g></g><g transform="translate(-270,-166) scale(1,1)"><rect fill="#C0C0C0" stroke="none" x="287" y="431" width="192" height="104" opacity="0.2"/></g><g transform="translate(-270,-166) scale(1,1)"><rect fill="#ffffff" stroke="none" x="280" y="424" width="192" height="104"/></g><g transform="translate(-270,-166) scale(1,1)"><path fill="none" stroke="#000000" d="M 280 424 L 472 424 L 472 528 L 280 528 L 280 424 Z Z" stroke-miterlimit="10"/></g><g transform="translate(-270,-166) scale(1,1)"><path fill="none" stroke="#000000" d="M 280 449 L 472 449" stroke-miterlimit="10"/></g><g transform="translate(-270,-166) scale(1,1)"><path fill="none" stroke="#000000" d="M 280 502 L 472 502" stroke-miterlimit="10"/></g><g transform="translate(-270,-166) scale(1,1)"><g><path fill="none" stroke="none"/><text fill="#000000" stroke="none" font-family="Arial" font-size="13px" font-style="normal" font-weight="bold" text-decoration="none" x="339.5" y="443.5">Subcategory</text></g></g><g transform="translate(-270,-166) scale(1,1)"><g><path fill="none" stroke="none"/><text fill="#000000" stroke="none" font-family="Arial" font-size="13px" font-style="normal" font-weight="normal" text-decoration="none" x="285" y="466.5">+subcategory_id: int</text></g></g><g transform="translate(-270,-166) scale(1,1)"><g><path fill="none" stroke="none"/><text fill="#000000" stroke="none" font-family="Arial" font-size="13px" font-style="normal" font-weight="normal" text-decoration="none" x="285" y="481.5">+name: string</text></g></g><g transform="translate(-270,-166) scale(1,1)"><g><path fill="none" stroke="none"/><text fill="#000000" stroke="none" font-family="Arial" font-size="13px" font-style="normal" font-weight="normal" text-decoration="none" x="285" y="496.5">+cat_id: foreign key</text></g></g><g transform="translate(-270,-166) scale(1,1)"><path fill="none" stroke="#000000" d="M 378 423 L 381 320" stroke-miterlimit="10"/></g><g transform="translate(-270,-166) scale(1,1)"><path fill="none" stroke="#000000" d="M 384.91185858334933 330.2809222555117 L 381 320 L 376.4963918876051 330.0358115750532" stroke-miterlimit="10"/></g><g transform="translate(-270,-166) scale(1,1)"><g><path fill="none" stroke="none"/><text fill="#000000" stroke="none" font-family="Arial" font-size="13px" font-style="normal" font-weight="normal" text-decoration="none" x="329" y="377">+Belongs to</text></g></g><g transform="translate(-270,-166) scale(1,1)"><g><path fill="none" stroke="none"/><text fill="#000000" stroke="none" font-family="Arial" font-size="13px" font-style="normal" font-weight="normal" text-decoration="none" x="389" y="408">*</text></g></g><g transform="translate(-270,-166) scale(1,1)"><g><path fill="none" stroke="none"/><text fill="#000000" stroke="none" font-family="Arial" font-size="13px" font-style="normal" font-weight="normal" text-decoration="none" x="389" y="349">1</text></g></g></g></svg>