<svg version="1.1" xmlns="http://www.w3.org/2000/svg" xmlns:xlink="http://www.w3.org/1999/xlink" width="831.93896484375" height="548"><defs/><g><g transform="translate(-54,-62) scale(1,1)"><rect fill="#C0C0C0" stroke="none" x="351" y="87" width="231.00927734375" height="135" opacity="0.2"/></g><g transform="translate(-54,-62) scale(1,1)"><rect fill="#ffffff" stroke="none" x="344" y="80" width="231.00927734375" height="135"/></g><g transform="translate(-54,-62) scale(1,1)"><path fill="none" stroke="#000000" d="M 344 80 L 575.00927734375 80 L 575.00927734375 215 L 344 215 L 344 80 Z Z" stroke-miterlimit="10"/></g><g transform="translate(-54,-62) scale(1,1)"><path fill="none" stroke="#000000" d="M 344 105 L 575.00927734375 105" stroke-miterlimit="10"/></g><g transform="translate(-54,-62) scale(1,1)"><g><path fill="none" stroke="none"/><text fill="#000000" stroke="none" font-family="Arial" font-size="13px" font-style="normal" font-weight="bold" text-decoration="none" x="441.004638671875" y="99.5">Article</text></g></g><g transform="translate(-54,-62) scale(1,1)"><g><path fill="none" stroke="none"/><text fill="#000000" stroke="none" font-family="Arial" font-size="13px" font-style="normal" font-weight="normal" text-decoration="none" x="349" y="122.5">title: String</text></g></g><g transform="translate(-54,-62) scale(1,1)"><g><path fill="none" stroke="none"/><text fill="#000000" stroke="none" font-family="Arial" font-size="13px" font-style="normal" font-weight="normal" text-decoration="none" x="349" y="137.5">created_at</text></g></g><g transform="translate(-54,-62) scale(1,1)"><g><path fill="none" stroke="none"/><text fill="#000000" stroke="none" font-family="Arial" font-size="13px" font-style="normal" font-weight="normal" text-decoration="none" x="349" y="152.5">updated_at</text></g></g><g transform="translate(-54,-62) scale(1,1)"><g><path fill="none" stroke="none"/><text fill="#000000" stroke="none" font-family="Arial" font-size="13px" font-style="normal" font-weight="normal" text-decoration="none" x="349" y="167.5">blocks: ArticleBlock[]</text></g></g><g transform="translate(-54,-62) scale(1,1)"><g><path fill="none" stroke="none"/><text fill="#000000" stroke="none" font-family="Arial" font-size="13px" font-style="normal" font-weight="normal" text-decoration="none" x="349" y="182.5">CategoryHierarchy: Tree&lt;Category&gt;</text></g></g><g transform="translate(-54,-62) scale(1,1)"><rect fill="#C0C0C0" stroke="none" x="663" y="79" width="219.93896484375" height="135" opacity="0.2"/></g><g transform="translate(-54,-62) scale(1,1)"><rect fill="#ffffff" stroke="none" x="656" y="72" width="219.93896484375" height="135"/></g><g transform="translate(-54,-62) scale(1,1)"><path fill="none" stroke="#000000" d="M 656 72 L 875.93896484375 72 L 875.93896484375 207 L 656 207 L 656 72 Z Z" stroke-miterlimit="10"/></g><g transform="translate(-54,-62) scale(1,1)"><path fill="none" stroke="#000000" d="M 656 97 L 875.93896484375 97" stroke-miterlimit="10"/></g><g transform="translate(-54,-62) scale(1,1)"><g><path fill="none" stroke="none"/><text fill="#000000" stroke="none" font-family="Arial" font-size="13px" font-style="normal" font-weight="bold" text-decoration="none" x="722.469482421875" y="91.5">ArticleManager</text></g></g><g transform="translate(-54,-62) scale(1,1)"><g><path fill="none" stroke="none"/><text fill="#000000" stroke="none" font-family="Arial" font-size="13px" font-style="normal" font-weight="normal" text-decoration="none" x="661" y="114.5">article: Article</text></g></g><g transform="translate(-54,-62) scale(1,1)"><path fill="none" stroke="#000000" d="M 655 142 L 576 144" stroke-miterlimit="10"/></g><g transform="translate(-54,-62) scale(1,1)"><path fill="none" stroke="#000000" d="M 586.0528837420329 139.53463008596492 L 576 144 L 586.2659556111921 147.9509689177509" stroke-miterlimit="10"/></g><g transform="translate(-54,-62) scale(1,1)"><g><path fill="none" stroke="none"/><text fill="#000000" stroke="none" font-family="Arial" font-size="13px" font-style="normal" font-weight="normal" text-decoration="none" x="587" y="164">+Modifies</text></g></g><g transform="translate(-54,-62) scale(1,1)"><g><path fill="none" stroke="none"/><text fill="#000000" stroke="none" font-family="Arial" font-size="13px" font-style="normal" font-weight="normal" text-decoration="none" x="639" y="137">1</text></g></g><g transform="translate(-54,-62) scale(1,1)"><g><path fill="none" stroke="none"/><text fill="#000000" stroke="none" font-family="Arial" font-size="13px" font-style="normal" font-weight="normal" text-decoration="none" x="580" y="137">1</text></g></g><g transform="translate(-54,-62) scale(1,1)"><rect fill="#C0C0C0" stroke="none" x="367" y="311" width="216" height="72" opacity="0.2"/></g><g transform="translate(-54,-62) scale(1,1)"><rect fill="#ffffff" stroke="none" x="360" y="304" width="216" height="72"/></g><g transform="translate(-54,-62) scale(1,1)"><path fill="none" stroke="#000000" d="M 360 304 L 576 304 L 576 376 L 360 376 L 360 304 Z Z" stroke-miterlimit="10"/></g><g transform="translate(-54,-62) scale(1,1)"><path fill="none" stroke="#000000" d="M 360 329 L 576 329" stroke-miterlimit="10"/></g><g transform="translate(-54,-62) scale(1,1)"><g><path fill="none" stroke="none"/><text fill="#000000" stroke="none" font-family="Arial" font-size="13px" font-style="italic" font-weight="bold" text-decoration="none" x="433" y="323.5">ArticleBlock</text></g></g><g transform="translate(-54,-62) scale(1,1)"><g><path fill="none" stroke="none"/><text fill="#000000" stroke="none" font-family="Arial" font-size="13px" font-style="normal" font-weight="normal" text-decoration="none" x="365" y="346.5">position: int</text></g></g><g transform="translate(-54,-62) scale(1,1)"><path fill="none" stroke="#000000" d="M 466 303 L 462 216" stroke-miterlimit="10"/></g><g transform="translate(-54,-62) scale(1,1)"><path fill="#000000" stroke="none" d="M 466.67183192243976 225.95861368306217 L 462 216 L 458.2616807664105 226.34528729943133 L 463.01042685328554 237.97678405896002"/></g><g transform="translate(-54,-62) scale(1,1)"><path fill="none" stroke="#000000" d="M 466.67183192243976 225.95861368306217 L 462 216 L 458.2616807664105 226.34528729943133 L 463.01042685328554 237.97678405896002 L 466.67183192243976 225.95861368306217" stroke-miterlimit="10"/></g><g transform="translate(-54,-62) scale(1,1)"><g><path fill="none" stroke="none"/><text fill="#000000" stroke="none" font-family="Arial" font-size="13px" font-style="normal" font-weight="normal" text-decoration="none" x="472" y="267">+Contains</text></g></g><g transform="translate(-54,-62) scale(1,1)"><g><path fill="none" stroke="none"/><text fill="#000000" stroke="none" font-family="Arial" font-size="13px" font-style="normal" font-weight="normal" text-decoration="none" x="473" y="300">0..*</text></g></g><g transform="translate(-54,-62) scale(1,1)"><g><path fill="none" stroke="none"/><text fill="#000000" stroke="none" font-family="Arial" font-size="13px" font-style="normal" font-weight="normal" text-decoration="none" x="471" y="236">1</text></g></g><g transform="translate(-54,-62) scale(1,1)"><rect fill="#C0C0C0" stroke="none" x="279" y="487" width="176" height="119" opacity="0.2"/></g><g transform="translate(-54,-62) scale(1,1)"><rect fill="#ffffff" stroke="none" x="272" y="480" width="176" height="119"/></g><g transform="translate(-54,-62) scale(1,1)"><path fill="none" stroke="#000000" d="M 272 480 L 448 480 L 448 599 L 272 599 L 272 480 Z Z" stroke-miterlimit="10"/></g><g transform="translate(-54,-62) scale(1,1)"><path fill="none" stroke="#000000" d="M 272 505 L 448 505" stroke-miterlimit="10"/></g><g transform="translate(-54,-62) scale(1,1)"><g><path fill="none" stroke="none"/><text fill="#000000" stroke="none" font-family="Arial" font-size="13px" font-style="normal" font-weight="bold" text-decoration="none" x="325.5" y="499.5">ImageBlock</text></g></g><g transform="translate(-54,-62) scale(1,1)"><g><path fill="none" stroke="none"/><text fill="#000000" stroke="none" font-family="Arial" font-size="13px" font-style="normal" font-weight="normal" text-decoration="none" x="277" y="522.5">location_path: String</text></g></g><g transform="translate(-54,-62) scale(1,1)"><g><path fill="none" stroke="none"/><text fill="#000000" stroke="none" font-family="Arial" font-size="13px" font-style="normal" font-weight="normal" text-decoration="none" x="277" y="537.5">type: String</text></g></g><g transform="translate(-54,-62) scale(1,1)"><g><path fill="none" stroke="none"/><text fill="#000000" stroke="none" font-family="Arial" font-size="13px" font-style="normal" font-weight="normal" text-decoration="none" x="277" y="552.5">description: String</text></g></g><g transform="translate(-54,-62) scale(1,1)"><rect fill="#C0C0C0" stroke="none" x="71" y="487" width="160" height="119" opacity="0.2"/></g><g transform="translate(-54,-62) scale(1,1)"><rect fill="#ffffff" stroke="none" x="64" y="480" width="160" height="119"/></g><g transform="translate(-54,-62) scale(1,1)"><path fill="none" stroke="#000000" d="M 64 480 L 224 480 L 224 599 L 64 599 L 64 480 Z Z" stroke-miterlimit="10"/></g><g transform="translate(-54,-62) scale(1,1)"><path fill="none" stroke="#000000" d="M 64 505 L 224 505" stroke-miterlimit="10"/></g><g transform="translate(-54,-62) scale(1,1)"><g><path fill="none" stroke="none"/><text fill="#000000" stroke="none" font-family="Arial" font-size="13px" font-style="normal" font-weight="bold" text-decoration="none" x="114.5" y="499.5">TextBlock</text></g></g><g transform="translate(-54,-62) scale(1,1)"><g><path fill="none" stroke="none"/><text fill="#000000" stroke="none" font-family="Arial" font-size="13px" font-style="normal" font-weight="normal" text-decoration="none" x="69" y="522.5">body: String</text></g></g><g transform="translate(-54,-62) scale(1,1)"><rect fill="#C0C0C0" stroke="none" x="495" y="479" width="160" height="128" opacity="0.2"/></g><g transform="translate(-54,-62) scale(1,1)"><rect fill="#ffffff" stroke="none" x="488" y="472" width="160" height="128"/></g><g transform="translate(-54,-62) scale(1,1)"><path fill="none" stroke="#000000" d="M 488 472 L 648 472 L 648 600 L 488 600 L 488 472 Z Z" stroke-miterlimit="10"/></g><g transform="translate(-54,-62) scale(1,1)"><path fill="none" stroke="#000000" d="M 488 497 L 648 497" stroke-miterlimit="10"/></g><g transform="translate(-54,-62) scale(1,1)"><g><path fill="none" stroke="none"/><text fill="#000000" stroke="none" font-family="Arial" font-size="13px" font-style="normal" font-weight="bold" text-decoration="none" x="539.5" y="491.5">LinkBlock</text></g></g><g transform="translate(-54,-62) scale(1,1)"><g><path fill="none" stroke="none"/><text fill="#000000" stroke="none" font-family="Arial" font-size="13px" font-style="normal" font-weight="normal" text-decoration="none" x="493" y="514.5">link_text: String</text></g></g><g transform="translate(-54,-62) scale(1,1)"><g><path fill="none" stroke="none"/><text fill="#000000" stroke="none" font-family="Arial" font-size="13px" font-style="normal" font-weight="normal" text-decoration="none" x="493" y="529.5">url: String</text></g></g><g transform="translate(-54,-62) scale(1,1)"><rect fill="#C0C0C0" stroke="none" x="695" y="471" width="186.759765625" height="136" opacity="0.2"/></g><g transform="translate(-54,-62) scale(1,1)"><rect fill="#ffffff" stroke="none" x="688" y="464" width="186.759765625" height="136"/></g><g transform="translate(-54,-62) scale(1,1)"><path fill="none" stroke="#000000" d="M 688 464 L 874.759765625 464 L 874.759765625 600 L 688 600 L 688 464 Z Z" stroke-miterlimit="10"/></g><g transform="translate(-54,-62) scale(1,1)"><path fill="none" stroke="#000000" d="M 688 489 L 874.759765625 489" stroke-miterlimit="10"/></g><g transform="translate(-54,-62) scale(1,1)"><g><path fill="none" stroke="none"/><text fill="#000000" stroke="none" font-family="Arial" font-size="13px" font-style="normal" font-weight="bold" text-decoration="none" x="739.3798828125" y="483.5">EquationBlock</text></g></g><g transform="translate(-54,-62) scale(1,1)"><g><path fill="none" stroke="none"/><text fill="#000000" stroke="none" font-family="Arial" font-size="13px" font-style="normal" font-weight="normal" text-decoration="none" x="693" y="506.5">equation</text></g></g><g transform="translate(-54,-62) scale(1,1)"><g><path fill="none" stroke="none"/><text fill="#000000" stroke="none" font-family="Arial" font-size="13px" font-style="normal" font-weight="normal" text-decoration="none" x="693" y="521.5">description</text></g></g><g transform="translate(-54,-62) scale(1,1)"><g><path fill="none" stroke="none"/><text fill="#000000" stroke="none" font-family="Arial" font-size="13px" font-style="normal" font-weight="normal" text-decoration="none" x="693" y="536.5">variables: EquationVariable[]</text></g></g><g transform="translate(-54,-62) scale(1,1)"><path fill="none" stroke="#000000" d="M 225 489 L 408 377" stroke-miterlimit="10"/></g><g transform="translate(-54,-62) scale(1,1)"><path fill="#FFFFFF" stroke="none" d="M 395.05864418957674 394.79104577555864 L 408 377 L 386.268910436404 380.4292486609996"/></g><g transform="translate(-54,-62) scale(1,1)"><path fill="none" stroke="#000000" d="M 395.05864418957674 394.79104577555864 L 408 377 L 386.268910436404 380.4292486609996 L 395.05864418957674 394.79104577555864" stroke-miterlimit="10"/></g><g transform="translate(-54,-62) scale(1,1)"><path fill="none" stroke="#000000" d="M 393 479 L 448 377" stroke-miterlimit="10"/></g><g transform="translate(-54,-62) scale(1,1)"><path fill="#FFFFFF" stroke="none" d="M 445.76368099946825 398.88604298012456 L 448 377 L 430.94291426524137 390.894453074414"/></g><g transform="translate(-54,-62) scale(1,1)"><path fill="none" stroke="#000000" d="M 445.76368099946825 398.88604298012456 L 448 377 L 430.94291426524137 390.894453074414 L 445.76368099946825 398.88604298012456" stroke-miterlimit="10"/></g><g transform="translate(-54,-62) scale(1,1)"><path fill="none" stroke="#000000" d="M 535 471 L 487 377" stroke-miterlimit="10"/></g><g transform="translate(-54,-62) scale(1,1)"><path fill="#FFFFFF" stroke="none" d="M 503.7415421018194 391.27307843644843 L 487 377 L 488.7454673968964 398.93064849853675"/></g><g transform="translate(-54,-62) scale(1,1)"><path fill="none" stroke="#000000" d="M 503.7415421018194 391.27307843644843 L 487 377 L 488.7454673968964 398.93064849853675 L 503.7415421018194 391.27307843644843" stroke-miterlimit="10"/></g><g transform="translate(-54,-62) scale(1,1)"><path fill="none" stroke="#000000" d="M 687 474 L 528 377" stroke-miterlimit="10"/></g><g transform="translate(-54,-62) scale(1,1)"><path fill="#FFFFFF" stroke="none" d="M 549.7359589002235 380.39824817925233 L 528 377 L 540.966719602236 394.77256826564434"/></g><g transform="translate(-54,-62) scale(1,1)"><path fill="none" stroke="#000000" d="M 549.7359589002235 380.39824817925233 L 528 377 L 540.966719602236 394.77256826564434 L 549.7359589002235 380.39824817925233" stroke-miterlimit="10"/></g><g transform="translate(-54,-62) scale(1,1)"><rect fill="#C0C0C0" stroke="none" x="703" y="271" width="152" height="88" opacity="0.2"/></g><g transform="translate(-54,-62) scale(1,1)"><rect fill="#ffffff" stroke="none" x="696" y="264" width="152" height="88"/></g><g transform="translate(-54,-62) scale(1,1)"><path fill="none" stroke="#000000" d="M 696 264 L 848 264 L 848 352 L 696 352 L 696 264 Z Z" stroke-miterlimit="10"/></g><g transform="translate(-54,-62) scale(1,1)"><path fill="none" stroke="#000000" d="M 696 289 L 848 289" stroke-miterlimit="10"/></g><g transform="translate(-54,-62) scale(1,1)"><g><path fill="none" stroke="none"/><text fill="#000000" stroke="none" font-family="Arial" font-size="13px" font-style="normal" font-weight="bold" text-decoration="none" x="723" y="283.5">EquationVariable</text></g></g><g transform="translate(-54,-62) scale(1,1)"><g><path fill="none" stroke="none"/><text fill="#000000" stroke="none" font-family="Arial" font-size="13px" font-style="normal" font-weight="normal" text-decoration="none" x="701" y="306.5">name</text></g></g><g transform="translate(-54,-62) scale(1,1)"><g><path fill="none" stroke="none"/><text fill="#000000" stroke="none" font-family="Arial" font-size="13px" font-style="normal" font-weight="normal" text-decoration="none" x="701" y="321.5">symbol</text></g></g><g transform="translate(-54,-62) scale(1,1)"><path fill="none" stroke="#000000" d="M 774 353 L 778 463" stroke-miterlimit="10"/></g><g transform="translate(-54,-62) scale(1,1)"><path fill="#FFFFFF" stroke="none" d="M 773.4239549158333 452.9970098776579 L 778 463 L 781.8374296376205 452.6910653423202 L 777.2005284016428 441.0145310451785"/></g><g transform="translate(-54,-62) scale(1,1)"><path fill="none" stroke="#000000" d="M 773.4239549158333 452.9970098776579 L 778 463 L 781.8374296376205 452.6910653423202 L 777.2005284016428 441.0145310451785 L 773.4239549158333 452.9970098776579" stroke-miterlimit="10"/></g><g transform="translate(-54,-62) scale(1,1)"><g><path fill="none" stroke="none"/><text fill="#000000" stroke="none" font-family="Arial" font-size="13px" font-style="normal" font-weight="normal" text-decoration="none" x="752" y="382">0..*</text></g></g><g transform="translate(-54,-62) scale(1,1)"><g><path fill="none" stroke="none"/><text fill="#000000" stroke="none" font-family="Arial" font-size="13px" font-style="normal" font-weight="normal" text-decoration="none" x="754" y="448">1..*</text></g></g></g></svg>