<svg version="1.1" xmlns="http://www.w3.org/2000/svg" xmlns:xlink="http://www.w3.org/1999/xlink" width="460" height="436"><defs/><g><g transform="translate(-190,-238) scale(1,1)"><rect fill="#C0C0C0" stroke="none" x="207" y="599" width="168" height="72" opacity="0.2"/></g><g transform="translate(-190,-238) scale(1,1)"><rect fill="#ffffff" stroke="none" x="200" y="592" width="168" height="72"/></g><g transform="translate(-190,-238) scale(1,1)"><path fill="none" stroke="#000000" d="M 200 592 L 368 592 L 368 664 L 200 664 L 200 592 Z Z" stroke-miterlimit="10"/></g><g transform="translate(-190,-238) scale(1,1)"><path fill="none" stroke="#000000" d="M 200 617 L 368 617" stroke-miterlimit="10"/></g><g transform="translate(-190,-238) scale(1,1)"><path fill="none" stroke="#000000" d="M 200 655 L 368 655" stroke-miterlimit="10"/></g><g transform="translate(-190,-238) scale(1,1)"><g><path fill="none" stroke="none"/><text fill="#000000" stroke="none" font-family="Arial" font-size="13px" font-style="normal" font-weight="bold" text-decoration="none" x="247.15185546875" y="611.5">UserSession</text></g></g><g transform="translate(-190,-238) scale(1,1)"><g><path fill="none" stroke="none"/><text fill="#000000" stroke="none" font-family="Arial" font-size="13px" font-style="normal" font-weight="normal" text-decoration="none" x="205" y="634.5">+last_login: DATE</text></g></g><g transform="translate(-190,-238) scale(1,1)"><g><path fill="none" stroke="none"/><text fill="#000000" stroke="none" font-family="Arial" font-size="13px" font-style="normal" font-weight="normal" text-decoration="none" x="205" y="649.5">+time_logged: DATE</text></g></g><g transform="translate(-190,-238) scale(1,1)"><rect fill="#C0C0C0" stroke="none" x="455" y="599" width="192" height="57" opacity="0.2"/></g><g transform="translate(-190,-238) scale(1,1)"><rect fill="#ffffff" stroke="none" x="448" y="592" width="192" height="57"/></g><g transform="translate(-190,-238) scale(1,1)"><path fill="none" stroke="#000000" d="M 448 592 L 640 592 L 640 649 L 448 649 L 448 592 Z Z" stroke-miterlimit="10"/></g><g transform="translate(-190,-238) scale(1,1)"><path fill="none" stroke="#000000" d="M 448 617 L 640 617" stroke-miterlimit="10"/></g><g transform="translate(-190,-238) scale(1,1)"><path fill="none" stroke="#000000" d="M 448 640 L 640 640" stroke-miterlimit="10"/></g><g transform="translate(-190,-238) scale(1,1)"><g><path fill="none" stroke="none"/><text fill="#000000" stroke="none" font-family="Arial" font-size="13px" font-style="normal" font-weight="bold" text-decoration="none" x="494.878662109375" y="611.5">UserPermissions</text></g></g><g transform="translate(-190,-238) scale(1,1)"><g><path fill="none" stroke="none"/><text fill="#000000" stroke="none" font-family="Arial" font-size="13px" font-style="normal" font-weight="normal" text-decoration="none" x="453" y="634.5">+access_level: INT</text></g></g><g transform="translate(-190,-238) scale(1,1)"><rect fill="#C0C0C0" stroke="none" x="311" y="487" width="216" height="44" opacity="0.2"/></g><g transform="translate(-190,-238) scale(1,1)"><rect fill="#ffffff" stroke="none" x="304" y="480" width="216" height="44"/></g><g transform="translate(-190,-238) scale(1,1)"><path fill="none" stroke="#000000" d="M 304 480 L 520 480 L 520 524 L 304 524 L 304 480 Z Z" stroke-miterlimit="10"/></g><g transform="translate(-190,-238) scale(1,1)"><path fill="none" stroke="#000000" d="M 304 505 L 520 505" stroke-miterlimit="10"/></g><g transform="translate(-190,-238) scale(1,1)"><path fill="none" stroke="#000000" d="M 304 515 L 520 515" stroke-miterlimit="10"/></g><g transform="translate(-190,-238) scale(1,1)"><g><path fill="none" stroke="none"/><text fill="#000000" stroke="none" font-family="Arial" font-size="13px" font-style="normal" font-weight="bold" text-decoration="none" x="398.2763671875" y="499.5">User</text></g></g><g transform="translate(-190,-238) scale(1,1)"><rect fill="#C0C0C0" stroke="none" x="311" y="343" width="215" height="102" opacity="0.2"/></g><g transform="translate(-190,-238) scale(1,1)"><rect fill="#ffffff" stroke="none" x="304" y="336" width="215" height="102"/></g><g transform="translate(-190,-238) scale(1,1)"><path fill="none" stroke="#000000" d="M 304 336 L 519 336 L 519 438 L 304 438 L 304 336 Z Z" stroke-miterlimit="10"/></g><g transform="translate(-190,-238) scale(1,1)"><path fill="none" stroke="#000000" d="M 304 361 L 519 361" stroke-miterlimit="10"/></g><g transform="translate(-190,-238) scale(1,1)"><path fill="none" stroke="#000000" d="M 304 429 L 519 429" stroke-miterlimit="10"/></g><g transform="translate(-190,-238) scale(1,1)"><g><path fill="none" stroke="none"/><text fill="#000000" stroke="none" font-family="Arial" font-size="13px" font-style="normal" font-weight="bold" text-decoration="none" x="381.87548828125" y="355.5">Moderator</text></g></g><g transform="translate(-190,-238) scale(1,1)"><g><path fill="none" stroke="none"/><text fill="#000000" stroke="none" font-family="Arial" font-size="13px" font-style="normal" font-weight="normal" text-decoration="none" x="309" y="378.5">+user_name: VARCHAR (255)</text></g></g><g transform="translate(-190,-238) scale(1,1)"><g><path fill="none" stroke="none"/><text fill="#000000" stroke="none" font-family="Arial" font-size="13px" font-style="normal" font-weight="normal" text-decoration="none" x="309" y="393.5">+id: INT</text></g></g><g transform="translate(-190,-238) scale(1,1)"><g><path fill="none" stroke="none"/><text fill="#000000" stroke="none" font-family="Arial" font-size="13px" font-style="normal" font-weight="normal" text-decoration="none" x="309" y="408.5">+email: VARCHAR (255)</text></g></g><g transform="translate(-190,-238) scale(1,1)"><g><path fill="none" stroke="none"/><text fill="#000000" stroke="none" font-family="Arial" font-size="13px" font-style="normal" font-weight="normal" text-decoration="none" x="309" y="423.5">+date_created: DATE</text></g></g><g transform="translate(-190,-238) scale(1,1)"><rect fill="#C0C0C0" stroke="none" x="311" y="255" width="216" height="44" opacity="0.2"/></g><g transform="translate(-190,-238) scale(1,1)"><rect fill="#ffffff" stroke="none" x="304" y="248" width="216" height="44"/></g><g transform="translate(-190,-238) scale(1,1)"><path fill="none" stroke="#000000" d="M 304 248 L 520 248 L 520 292 L 304 292 L 304 248 Z Z" stroke-miterlimit="10"/></g><g transform="translate(-190,-238) scale(1,1)"><path fill="none" stroke="#000000" d="M 304 273 L 520 273" stroke-miterlimit="10"/></g><g transform="translate(-190,-238) scale(1,1)"><path fill="none" stroke="#000000" d="M 304 283 L 520 283" stroke-miterlimit="10"/></g><g transform="translate(-190,-238) scale(1,1)"><g><path fill="none" stroke="none"/><text fill="#000000" stroke="none" font-family="Arial" font-size="13px" font-style="normal" font-weight="bold" text-decoration="none" x="393.575927734375" y="267.5">Admin</text></g></g><g transform="translate(-190,-238) scale(1,1)"><path fill="none" stroke="#000000" d="M 412 293 L 411 335" stroke-miterlimit="10"/></g><g transform="translate(-190,-238) scale(1,1)"><path fill="#FFFFFF" stroke="none" d="M 403.06714960773036 314.4800125571708 L 411 335 L 419.9004499641751 314.88080542280045"/></g><g transform="translate(-190,-238) scale(1,1)"><path fill="none" stroke="#000000" d="M 403.06714960773036 314.4800125571708 L 411 335 L 419.9004499641751 314.88080542280045 L 403.06714960773036 314.4800125571708" stroke-miterlimit="10"/></g><g transform="translate(-190,-238) scale(1,1)"><path fill="none" stroke="#000000" d="M 411 439 L 412 479" stroke-miterlimit="10"/></g><g transform="translate(-190,-238) scale(1,1)"><path fill="#FFFFFF" stroke="none" d="M 403.0756191784689 458.89140912564267 L 412 479 L 419.90843077056815 458.47058883584015"/></g><g transform="translate(-190,-238) scale(1,1)"><path fill="none" stroke="#000000" d="M 403.0756191784689 458.89140912564267 L 412 479 L 419.90843077056815 458.47058883584015 L 403.0756191784689 458.89140912564267" stroke-miterlimit="10"/></g><g transform="translate(-190,-238) scale(1,1)"><path fill="none" stroke="#000000" d="M 322 591 L 389 525" stroke-miterlimit="10"/></g><g transform="translate(-190,-238) scale(1,1)"><path fill="none" stroke="#000000" d="M 438 525 L 512 591" stroke-miterlimit="10"/></g></g></svg>